<svg xmlns="http://www.w3.org/2000/svg" xmlns:xlink="http://www.w3.org/1999/xlink" width="500" zoomAndPan="magnify" viewBox="0 0 375 374.999991" height="500" preserveAspectRatio="xMidYMid meet" version="1.0"><defs><g/><clipPath id="75696e0f31"><path d="M 110.234375 82.234375 L 265.484375 82.234375 L 265.484375 177.484375 L 110.234375 177.484375 Z M 110.234375 82.234375 " clip-rule="nonzero"/></clipPath><clipPath id="40f129305d"><path d="M 78 161 L 287.914062 161 L 287.914062 235 L 78 235 Z M 78 161 " clip-rule="nonzero"/></clipPath><clipPath id="72e6c142b6"><path d="M 73.414062 120 L 272 120 L 272 237 L 73.414062 237 Z M 73.414062 120 " clip-rule="nonzero"/></clipPath></defs><g clip-path="url(#75696e0f31)"><path fill="#a6a6a6" d="M 110.121094 161.085938 C 110.269531 171.242188 112.414062 181.324219 116.402344 190.597656 C 120.390625 199.867188 126.152344 208.363281 133.316406 215.414062 C 140.480469 222.46875 149.011719 228.15625 158.285156 231.960938 C 167.554688 235.804688 177.601562 237.761719 187.644531 237.761719 C 177.601562 237.761719 167.554688 235.765625 158.285156 231.925781 C 149.011719 228.085938 140.519531 222.324219 133.5 215.195312 C 126.445312 208.066406 120.871094 199.535156 117.140625 190.265625 C 113.410156 180.992188 111.597656 170.984375 111.746094 161.050781 C 111.894531 151.113281 114.039062 141.253906 117.953125 132.167969 C 121.867188 123.117188 127.59375 114.84375 134.609375 108.011719 C 141.625 101.144531 149.972656 95.675781 159.058594 92.019531 C 168.109375 88.328125 177.894531 86.445312 187.644531 86.445312 C 197.433594 86.445312 207.183594 88.328125 216.234375 92.019531 C 225.28125 95.714844 233.628906 101.179688 240.644531 108.011719 C 247.664062 114.882812 253.386719 123.117188 257.304688 132.167969 C 261.292969 141.289062 263.398438 151.152344 263.542969 161.085938 C 263.691406 171.023438 261.882812 181.03125 258.152344 190.300781 C 254.460938 199.570312 248.84375 208.101562 241.789062 215.269531 C 234.738281 222.394531 226.277344 228.121094 217.007812 232 C 207.738281 235.878906 197.691406 237.835938 187.644531 237.835938 C 197.691406 237.835938 207.738281 235.878906 217.007812 232.035156 C 226.316406 228.195312 234.808594 222.542969 241.976562 215.488281 C 249.140625 208.433594 254.9375 199.941406 258.890625 190.671875 C 262.953125 181.324219 265.058594 171.242188 265.242188 161.085938 C 265.390625 150.929688 263.582031 140.699219 259.777344 131.207031 C 256.011719 121.714844 250.324219 112.925781 243.15625 105.574219 C 235.992188 98.226562 227.3125 92.316406 217.820312 88.289062 C 208.328125 84.300781 197.988281 82.234375 187.683594 82.234375 C 177.378906 82.234375 167.035156 84.300781 157.546875 88.328125 C 148.054688 92.316406 139.375 98.261719 132.207031 105.613281 C 125.042969 112.960938 119.355469 121.714844 115.589844 131.242188 C 111.785156 140.699219 109.972656 150.929688 110.121094 161.085938 Z M 110.121094 161.085938 " fill-opacity="1" fill-rule="nonzero"/></g><g clip-path="url(#40f129305d)"><path fill="#737373" d="M 288.078125 208.953125 C 288.078125 208.953125 287.8125 208.378906 287.375 207.808594 L 287.375 201.6875 C 287.375 201.6875 287.152344 200.894531 286.625 200.542969 C 286.625 200.542969 285.523438 192.484375 283.71875 186.40625 C 283.71875 186.40625 282.664062 180.902344 273.898438 179.1875 L 242.503906 179.1875 C 242.503906 179.1875 242.0625 179.1875 241.621094 179.363281 C 241.800781 178.921875 242.238281 178.613281 242.722656 178.613281 L 266.808594 178.042969 C 266.589844 176.457031 265.402344 175.925781 263.816406 175.925781 L 238.847656 175.925781 C 237.878906 175.925781 236.910156 176.015625 235.988281 176.28125 L 191.910156 191.121094 L 233.34375 183.324219 L 233.433594 187.992188 L 193.097656 198.121094 L 233.519531 193.101562 L 233.609375 197.019531 L 192.171875 204.945312 L 233.695312 203.140625 L 233.785156 207.191406 L 192.921875 212.125 L 233.917969 214.105469 L 234.003906 218.550781 L 193.1875 219.785156 L 237.132812 225.597656 C 237.132812 225.597656 236.691406 217.144531 240.039062 215.25 C 240.039062 214.238281 240.039062 212.785156 240.039062 211.066406 C 240.167969 211.109375 240.347656 211.15625 240.523438 211.15625 L 240.523438 212.960938 C 240.523438 212.960938 240.523438 213.222656 240.785156 213.3125 L 240.785156 216.042969 C 240.785156 216.042969 237.484375 217.628906 238.101562 226.742188 C 238.101562 226.742188 239.421875 227.050781 239.992188 227.140625 C 239.90625 225.773438 239.90625 223.878906 239.90625 223.878906 C 240.167969 219.476562 241.226562 218.421875 241.226562 218.421875 C 242.769531 216.085938 245.234375 216.921875 245.234375 216.921875 C 243.78125 217.011719 242.371094 218.199219 241.929688 218.859375 C 240.300781 221.28125 240.433594 225.023438 240.652344 227.140625 C 240.699219 227.625 240.917969 228.371094 241.183594 229.121094 C 241.183594 229.121094 215.554688 226.476562 215.554688 226.476562 L 244.527344 234.007812 L 248.140625 233.921875 L 248.226562 233.921875 C 248.226562 233.921875 250.738281 233.875 251.53125 230.574219 L 270.15625 230.308594 C 270.15625 230.308594 271.652344 232.6875 273.636719 232.644531 L 277.335938 232.644531 C 277.335938 232.644531 278.917969 232.511719 280.195312 230.265625 L 284.554688 229.914062 C 284.554688 229.914062 286.84375 229.691406 287.023438 228.285156 L 287.023438 215.074219 C 287.066406 215.074219 287.992188 215.207031 287.992188 213.753906 C 287.992188 213.621094 287.992188 208.996094 287.992188 208.996094 Z M 282.398438 187.246094 C 282.398438 187.246094 283.675781 192.21875 284.511719 200.542969 C 284.511719 200.542969 264.34375 201.292969 257.429688 200.851562 C 257.429688 200.851562 256.902344 191.472656 256.460938 187.464844 L 282.398438 187.289062 Z M 283.453125 208.070312 L 264.960938 208.46875 L 262.273438 206.621094 L 265.179688 207.324219 L 283.5 207.058594 L 284.378906 206.621094 Z M 283.9375 210.273438 L 283.015625 211.726562 L 265.929688 212.210938 L 263.59375 210.449219 L 266.28125 211.199219 L 283.058594 210.714844 Z M 260.074219 215.03125 L 259.367188 214.632812 C 259.148438 214.5 259.015625 214.28125 259.015625 214.0625 L 258.882812 210.582031 C 258.882812 210.363281 259.105469 210.097656 259.28125 210.230469 L 259.898438 210.671875 C 259.898438 210.757812 260.074219 215.074219 260.074219 215.074219 Z M 252.585938 182.621094 C 252.585938 182.621094 253.246094 182.53125 253.378906 183.105469 L 253.378906 185.042969 C 253.378906 185.042969 252.9375 185.792969 252.015625 185.660156 L 246.421875 185.394531 L 252.632812 184.824219 L 252.632812 183.414062 C 252.632812 183.414062 244.441406 183.238281 244.441406 183.238281 L 252.585938 182.664062 Z M 245.894531 229.207031 C 245.585938 229.648438 245.191406 229.914062 244.792969 229.914062 C 243.558594 229.957031 242.503906 227.976562 242.371094 225.464844 C 242.238281 222.957031 243.121094 220.84375 244.351562 220.796875 C 244.925781 220.796875 245.453125 221.195312 245.894531 221.941406 C 245.804688 221.941406 245.71875 221.941406 245.628906 221.941406 C 244.660156 221.988281 243.957031 223.660156 244.042969 225.6875 C 244.132812 227.625 244.96875 229.207031 245.894531 229.253906 Z M 249.902344 218.199219 C 247.875 213.398438 242.371094 214.414062 242.371094 214.414062 L 242.371094 212.960938 C 249.726562 212.34375 249.988281 218.421875 249.902344 218.199219 Z M 241.535156 209.613281 L 251.398438 208.953125 L 251.398438 205.828125 C 251.398438 205.828125 240.347656 203.050781 240.347656 203.050781 L 253.292969 205.167969 L 253.292969 210.230469 C 253.292969 210.230469 241.492188 209.613281 241.492188 209.613281 Z M 244.441406 197.59375 C 242.679688 197.328125 242.769531 194.996094 242.769531 194.996094 L 242.769531 187.773438 C 242.769531 187.773438 254.039062 187.550781 254.039062 187.550781 L 254.304688 200.410156 Z M 255.582031 222.957031 C 255.316406 222.957031 255.097656 222.734375 255.097656 222.472656 L 255.097656 219.875 C 255.097656 219.609375 255.316406 219.390625 255.582031 219.390625 L 261.570312 219.390625 C 264.695312 219.519531 264.5625 222.910156 264.5625 222.910156 L 255.582031 222.910156 Z M 282.707031 215.03125 L 266.855469 215.691406 L 264.386719 213.972656 L 267.074219 214.722656 L 282.839844 214.191406 L 283.71875 213.753906 L 282.75 215.03125 Z M 286.492188 221.722656 C 286.492188 221.941406 286.316406 222.117188 286.097656 222.117188 L 283.851562 222.117188 C 283.851562 218.992188 285.832031 218.726562 285.832031 218.726562 L 286.582031 218.550781 L 286.582031 221.679688 Z M 286.976562 213.796875 C 286.976562 213.796875 286.933594 214.367188 285.789062 214.457031 L 285.789062 210.492188 C 285.789062 210.316406 285.875 210.097656 286.050781 210.007812 L 286.582031 209.65625 C 286.757812 209.570312 286.976562 209.65625 286.976562 209.878906 Z M 195.519531 164.082031 L 144.484375 164.082031 C 143.648438 164.082031 142.988281 164.742188 142.988281 165.578125 L 142.988281 176.765625 C 136.382812 177.996094 130.789062 179.273438 126.519531 180.285156 L 126.519531 179.363281 L 114.761719 179.363281 C 114.011719 179.363281 113.398438 179.980469 113.398438 180.726562 L 113.398438 182.886719 C 112.472656 183.941406 111.589844 185.261719 111.589844 185.261719 L 108.113281 192.394531 C 106.617188 196.449219 102.300781 199.089844 102.300781 199.089844 L 100.933594 199.617188 L 100.933594 194.332031 L 92.789062 194.332031 C 92.039062 194.332031 91.425781 194.949219 91.425781 195.699219 L 91.425781 203.230469 L 78.960938 207.984375 L 78.960938 200.191406 C 78.960938 199.398438 79.359375 198.691406 80.019531 198.253906 L 88.738281 192.660156 C 89.089844 192.441406 89.488281 192.308594 89.925781 192.308594 L 100.933594 192.308594 L 100.933594 185.175781 C 100.933594 184.382812 101.332031 183.675781 101.992188 183.238281 L 110.710938 177.644531 C 111.0625 177.425781 111.460938 177.292969 111.898438 177.292969 L 126.519531 177.292969 L 126.519531 171.921875 C 126.519531 171.085938 126.960938 170.292969 127.664062 169.851562 L 140.039062 162.234375 C 140.433594 162.011719 140.875 161.882812 141.3125 161.882812 L 196.839844 161.882812 C 198.207031 161.882812 199.304688 162.980469 199.304688 164.347656 L 199.304688 173.152344 C 198.515625 172.933594 197.722656 172.757812 196.972656 172.625 L 196.972656 165.535156 C 196.972656 164.699219 196.3125 164.039062 195.476562 164.039062 Z M 195.519531 164.082031 " fill-opacity="1" fill-rule="nonzero"/></g><g clip-path="url(#72e6c142b6)"><path fill="#737373" d="M 145.101562 235.328125 C 145.101562 235.328125 139.597656 235.066406 138.671875 235.945312 C 138.671875 235.945312 133.125 237.839844 128.28125 235.503906 C 128.28125 235.503906 132.066406 236.121094 136.867188 234.976562 C 136.867188 234.976562 139.859375 233.921875 145.144531 235.328125 Z M 223.65625 189.710938 C 213.175781 208.777344 204.679688 207.015625 196.488281 224.011719 C 196.488281 224.011719 193.316406 220.003906 190.5 217.847656 C 190.5 217.847656 187.945312 215.117188 187.152344 212.078125 C 187.152344 212.078125 186.625 216.085938 189.089844 218.816406 C 192.703125 222.910156 194.992188 226.742188 195.386719 229.296875 C 195.476562 229.78125 195.429688 230.222656 195.386719 230.617188 L 193.273438 230.617188 C 193.449219 230.617188 193.625 230.617188 193.800781 230.660156 C 202.875 231.894531 211.371094 232.070312 211.371094 232.070312 C 204.503906 234.050781 196.796875 233.65625 189.53125 232.597656 C 182.96875 231.675781 176.761719 230.265625 171.875 229.691406 C 166.5 229.078125 161.085938 230.484375 157.210938 231.894531 C 153.730469 233.214844 148.886719 234.582031 148.886719 234.582031 C 149.722656 233.566406 152.144531 232.378906 153.113281 231.628906 C 154.171875 231.015625 155.273438 230.484375 156.375 230.046875 L 116.125 229.472656 C 123.347656 231.5 130.65625 233.128906 130.65625 233.128906 C 120.574219 232.335938 105.074219 229.296875 105.074219 229.296875 L 105.03125 229.296875 C 91.246094 226.300781 86.667969 225.597656 81.914062 227.09375 C 78.742188 228.0625 77.289062 229.207031 77.023438 229.429688 C 77.863281 228.152344 78.960938 227.09375 80.238281 226.257812 C 78.300781 224.234375 73.414062 218.464844 73.503906 211.859375 L 102.433594 201.160156 C 102.433594 201.160156 107.1875 200.234375 108.683594 196.183594 L 112.296875 189.136719 C 112.296875 189.136719 113.265625 185.746094 118.242188 184.558594 C 124.625 183.0625 151.046875 175.839844 186.140625 173.945312 C 189.53125 173.769531 192.921875 173.945312 196.222656 174.519531 C 202.695312 175.664062 212.472656 179.625 221.984375 183.941406 C 224.140625 184.953125 224.890625 187.597656 223.746094 189.710938 Z M 130.613281 185.4375 L 123.347656 187.113281 L 123.128906 189.972656 L 130.21875 188.300781 L 130.570312 185.4375 Z M 140.699219 183.238281 L 133.433594 184.910156 L 133.078125 187.816406 L 140.34375 186.144531 L 140.742188 183.28125 Z M 271.257812 123.878906 C 271.652344 130.527344 252.277344 136.824219 252.277344 136.824219 C 252.277344 136.824219 230.394531 144.222656 212.5625 149.375 L 210.886719 149.773438 L 210.886719 149.859375 C 204.019531 151.796875 197.851562 153.339844 194.023438 153.910156 C 180.019531 155.980469 168.835938 154.132812 167.734375 154.042969 C 166.632812 153.953125 166.457031 153.558594 166.457031 153.558594 L 166.105469 152.457031 C 165.972656 151.929688 166.808594 151.839844 166.808594 151.839844 L 149.59375 148.40625 L 152.585938 147.527344 L 169.804688 148.933594 L 165.402344 136.386719 L 168.042969 135.679688 L 180.988281 145.5 L 197.589844 140.261719 L 194.242188 137.96875 L 161.527344 125.199219 L 170.023438 121.589844 L 221.542969 131.058594 C 221.542969 131.058594 256.507812 120.355469 257.738281 120.269531 C 260.601562 119.785156 263.066406 121.0625 263.066406 121.0625 C 262.539062 120.972656 260.292969 121.28125 260.292969 121.28125 C 258.621094 121.632812 259.148438 122.734375 259.148438 122.734375 C 265.046875 121.105469 269.1875 121.988281 270.375 122.425781 C 271.609375 122.910156 271.257812 123.835938 271.257812 123.835938 Z M 232.597656 130.707031 C 232.597656 130.398438 232.375 130.265625 232.066406 130.351562 L 231.671875 130.484375 C 231.363281 130.574219 231.144531 130.882812 231.144531 131.191406 L 231.144531 132.027344 C 231.144531 132.335938 231.363281 132.464844 231.628906 132.378906 L 232.023438 132.246094 C 232.332031 132.160156 232.550781 131.851562 232.550781 131.542969 L 232.550781 130.707031 Z M 236.292969 129.472656 C 236.292969 129.164062 236.074219 129.03125 235.765625 129.121094 L 235.371094 129.253906 C 235.0625 129.339844 234.839844 129.648438 234.839844 129.957031 L 234.839844 130.792969 C 234.839844 131.101562 235.0625 131.234375 235.324219 131.144531 L 235.722656 131.011719 C 236.03125 130.925781 236.25 130.617188 236.25 130.308594 L 236.25 129.472656 Z M 239.992188 128.238281 C 239.992188 127.929688 239.773438 127.800781 239.464844 127.886719 L 239.070312 128.019531 C 238.761719 128.105469 238.539062 128.414062 238.539062 128.722656 L 238.539062 129.558594 C 238.539062 129.867188 238.761719 130 239.023438 129.914062 L 239.421875 129.78125 C 239.730469 129.691406 239.949219 129.382812 239.949219 129.074219 L 239.949219 128.238281 Z M 243.691406 127.007812 C 243.691406 126.699219 243.472656 126.566406 243.164062 126.652344 L 242.769531 126.785156 C 242.460938 126.875 242.238281 127.183594 242.238281 127.492188 L 242.238281 128.328125 C 242.238281 128.636719 242.460938 128.769531 242.722656 128.679688 L 243.121094 128.546875 C 243.429688 128.460938 243.648438 128.152344 243.648438 127.84375 L 243.648438 127.007812 Z M 247.390625 125.773438 C 247.390625 125.464844 247.171875 125.332031 246.863281 125.421875 L 246.464844 125.554688 C 246.160156 125.640625 245.9375 125.949219 245.9375 126.257812 L 245.9375 127.09375 C 245.9375 127.402344 246.160156 127.535156 246.421875 127.445312 L 246.820312 127.316406 C 247.128906 127.226562 247.347656 126.917969 247.347656 126.609375 L 247.347656 125.773438 Z M 251.089844 124.539062 C 251.089844 124.230469 250.871094 124.101562 250.5625 124.1875 L 250.164062 124.320312 C 249.855469 124.410156 249.636719 124.714844 249.636719 125.023438 L 249.636719 125.863281 C 249.636719 126.167969 249.855469 126.300781 250.121094 126.214844 L 250.515625 126.082031 C 250.824219 125.992188 251.046875 125.683594 251.046875 125.378906 L 251.046875 124.539062 Z M 209.125 158.710938 L 214.761719 157.476562 L 227.839844 145.765625 L 212.558594 149.375 C 211.988281 149.550781 211.414062 149.683594 210.886719 149.859375 L 209.125 158.753906 Z M 209.125 158.710938 " fill-opacity="1" fill-rule="nonzero"/></g><g fill="#000000" fill-opacity="1"><g transform="translate(54.975446, 269.176548)"><g><path d="M 15.484375 -5.921875 L 8.375 -5.921875 L 6.453125 0 L 0.125 0 L 8.375 -22.828125 L 15.640625 -22.828125 L 23.875 0 L 17.40625 0 Z M 11.9375 -17.5625 L 9.828125 -10.546875 L 14.0625 -10.546875 Z M 11.9375 -17.5625 "/></g></g></g><g fill="#000000" fill-opacity="1"><g transform="translate(78.352451, 269.176548)"><g><path d="M 28.75 -22.828125 L 28.75 0 L 22.796875 0 L 22.796875 -9.59375 C 22.796875 -10.582031 22.800781 -11.75 22.8125 -13.09375 C 22.820312 -14.4375 22.835938 -15.6875 22.859375 -16.84375 C 22.660156 -15.6875 22.410156 -14.441406 22.109375 -13.109375 C 21.816406 -11.773438 21.535156 -10.601562 21.265625 -9.59375 L 18.75 0 L 12.640625 0 L 10.09375 -9.59375 C 9.820312 -10.582031 9.535156 -11.75 9.234375 -13.09375 C 8.941406 -14.4375 8.707031 -15.6875 8.53125 -16.84375 C 8.570312 -15.6875 8.59375 -14.4375 8.59375 -13.09375 C 8.59375 -11.75 8.59375 -10.582031 8.59375 -9.59375 L 8.59375 0 L 2.640625 0 L 2.640625 -22.828125 L 11.9375 -22.828125 L 15.8125 -5.78125 L 19.6875 -22.828125 Z M 28.75 -22.828125 "/></g></g></g><g fill="#000000" fill-opacity="1"><g transform="translate(108.871518, 269.176548)"><g/></g></g><g fill="#000000" fill-opacity="1"><g transform="translate(114.690982, 269.176548)"><g><path d="M 20.140625 -5.03125 L 20.140625 0 L 2.640625 0 L 2.640625 -22.828125 L 8.59375 -22.828125 L 8.59375 -5.03125 Z M 20.140625 -5.03125 "/></g></g></g><g fill="#000000" fill-opacity="1"><g transform="translate(135.455851, 269.176548)"><g><path d="M 13.46875 -23.28125 C 15.84375 -23.28125 17.898438 -22.800781 19.640625 -21.84375 C 21.390625 -20.882812 22.742188 -19.515625 23.703125 -17.734375 C 24.660156 -15.960938 25.140625 -13.851562 25.140625 -11.40625 C 25.140625 -8.957031 24.660156 -6.847656 23.703125 -5.078125 C 22.742188 -3.304688 21.390625 -1.9375 19.640625 -0.96875 C 17.898438 -0.0078125 15.84375 0.46875 13.46875 0.46875 C 11.101562 0.46875 9.039062 -0.0078125 7.28125 -0.96875 C 5.53125 -1.9375 4.175781 -3.304688 3.21875 -5.078125 C 2.257812 -6.847656 1.78125 -8.957031 1.78125 -11.40625 C 1.78125 -13.851562 2.257812 -15.960938 3.21875 -17.734375 C 4.175781 -19.515625 5.53125 -20.882812 7.28125 -21.84375 C 9.039062 -22.800781 11.101562 -23.28125 13.46875 -23.28125 Z M 13.46875 -3.90625 C 15.1875 -3.90625 16.546875 -4.554688 17.546875 -5.859375 C 18.546875 -7.160156 19.046875 -9.007812 19.046875 -11.40625 C 19.046875 -13.832031 18.546875 -15.691406 17.546875 -16.984375 C 16.546875 -18.273438 15.1875 -18.921875 13.46875 -18.921875 C 11.738281 -18.921875 10.375 -18.273438 9.375 -16.984375 C 8.375 -15.691406 7.875 -13.832031 7.875 -11.40625 C 7.875 -9.007812 8.375 -7.160156 9.375 -5.859375 C 10.375 -4.554688 11.738281 -3.90625 13.46875 -3.90625 Z M 13.46875 -3.90625 "/></g></g></g><g fill="#000000" fill-opacity="1"><g transform="translate(161.511134, 269.176548)"><g><path d="M 13.53125 -12.171875 L 23.578125 -12.171875 L 23.578125 0 L 18.953125 0 L 18.390625 -3.5 L 17.40625 -1 C 16.757812 -0.445312 16.019531 -0.0664062 15.1875 0.140625 C 14.363281 0.359375 13.347656 0.46875 12.140625 0.46875 C 10.109375 0.46875 8.316406 0.0234375 6.765625 -0.859375 C 5.210938 -1.742188 3.992188 -3.054688 3.109375 -4.796875 C 2.222656 -6.535156 1.78125 -8.6875 1.78125 -11.25 C 1.78125 -13.226562 2.085938 -14.96875 2.703125 -16.46875 C 3.328125 -17.96875 4.171875 -19.222656 5.234375 -20.234375 C 6.304688 -21.253906 7.539062 -22.015625 8.9375 -22.515625 C 10.34375 -23.023438 11.828125 -23.28125 13.390625 -23.28125 C 15.578125 -23.28125 17.40625 -22.925781 18.875 -22.21875 C 20.34375 -21.519531 21.476562 -20.566406 22.28125 -19.359375 C 23.082031 -18.160156 23.5625 -16.8125 23.71875 -15.3125 L 23.75 -14.984375 L 17.796875 -14.984375 L 17.734375 -15.3125 C 17.242188 -17.71875 15.773438 -18.921875 13.328125 -18.921875 C 12.359375 -18.921875 11.46875 -18.65625 10.65625 -18.125 C 9.851562 -17.59375 9.207031 -16.785156 8.71875 -15.703125 C 8.238281 -14.628906 8 -13.265625 8 -11.609375 C 8 -9.691406 8.25 -8.171875 8.75 -7.046875 C 9.25 -5.921875 9.898438 -5.113281 10.703125 -4.625 C 11.503906 -4.144531 12.367188 -3.90625 13.296875 -3.90625 C 14.460938 -3.90625 15.425781 -4.195312 16.1875 -4.78125 C 16.945312 -5.363281 17.539062 -6.285156 17.96875 -7.546875 L 13.53125 -7.546875 Z M 13.53125 -12.171875 "/></g></g></g><g fill="#000000" fill-opacity="1"><g transform="translate(186.607539, 269.176548)"><g><path d="M 8.59375 0 L 2.640625 0 L 2.640625 -22.828125 L 8.59375 -22.828125 Z M 8.59375 0 "/></g></g></g><g fill="#000000" fill-opacity="1"><g transform="translate(196.989974, 269.176548)"><g><path d="M 10.65625 -23.28125 C 12.65625 -23.28125 14.289062 -22.945312 15.5625 -22.28125 C 16.832031 -21.625 17.796875 -20.726562 18.453125 -19.59375 C 19.117188 -18.457031 19.53125 -17.1875 19.6875 -15.78125 L 13.734375 -15.78125 C 13.597656 -16.726562 13.269531 -17.488281 12.75 -18.0625 C 12.226562 -18.632812 11.484375 -18.921875 10.515625 -18.921875 C 9.835938 -18.921875 9.285156 -18.753906 8.859375 -18.421875 C 8.441406 -18.085938 8.234375 -17.570312 8.234375 -16.875 C 8.234375 -16.144531 8.566406 -15.53125 9.234375 -15.03125 C 9.910156 -14.539062 11.1875 -14.070312 13.0625 -13.625 C 15.582031 -13.03125 17.390625 -12.117188 18.484375 -10.890625 C 19.585938 -9.671875 20.140625 -8.179688 20.140625 -6.421875 C 20.140625 -4.898438 19.707031 -3.628906 18.84375 -2.609375 C 17.988281 -1.597656 16.882812 -0.832031 15.53125 -0.3125 C 14.175781 0.207031 12.726562 0.46875 11.1875 0.46875 C 8.289062 0.46875 5.929688 -0.128906 4.109375 -1.328125 C 2.296875 -2.535156 1.300781 -4.421875 1.125 -6.984375 L 7.078125 -6.984375 C 7.273438 -5.898438 7.757812 -5.113281 8.53125 -4.625 C 9.300781 -4.144531 10.128906 -3.90625 11.015625 -3.90625 C 11.847656 -3.90625 12.539062 -4.101562 13.09375 -4.5 C 13.644531 -4.894531 13.921875 -5.398438 13.921875 -6.015625 C 13.921875 -6.609375 13.660156 -7.15625 13.140625 -7.65625 C 12.628906 -8.15625 11.664062 -8.582031 10.25 -8.9375 C 8.53125 -9.375 7.050781 -9.878906 5.8125 -10.453125 C 4.582031 -11.023438 3.640625 -11.78125 2.984375 -12.71875 C 2.335938 -13.65625 2.015625 -14.882812 2.015625 -16.40625 C 2.015625 -17.882812 2.414062 -19.128906 3.21875 -20.140625 C 4.03125 -21.160156 5.09375 -21.9375 6.40625 -22.46875 C 7.71875 -23.007812 9.132812 -23.28125 10.65625 -23.28125 Z M 10.65625 -23.28125 "/></g></g></g><g fill="#000000" fill-opacity="1"><g transform="translate(217.688719, 269.176548)"><g><path d="M 21.234375 -18.1875 L 13.828125 -18.1875 L 13.828125 0 L 7.875 0 L 7.875 -18.1875 L 0.46875 -18.1875 L 0.46875 -22.828125 L 21.234375 -22.828125 Z M 21.234375 -18.1875 "/></g></g></g><g fill="#000000" fill-opacity="1"><g transform="translate(238.585856, 269.176548)"><g><path d="M 8.59375 0 L 2.640625 0 L 2.640625 -22.828125 L 8.59375 -22.828125 Z M 8.59375 0 "/></g></g></g><g fill="#000000" fill-opacity="1"><g transform="translate(248.968291, 269.176548)"><g><path d="M 22.234375 -4.203125 C 23.398438 -3.847656 24.578125 -3.175781 25.765625 -2.1875 L 22.921875 1.59375 C 21.859375 0.945312 21.003906 0.507812 20.359375 0.28125 C 19.710938 0.0507812 19 -0.0625 18.21875 -0.0625 C 17.757812 -0.0625 17.359375 -0.0390625 17.015625 0 C 16.671875 0.0390625 16.269531 0.117188 15.8125 0.234375 C 15.125 0.390625 14.34375 0.46875 13.46875 0.46875 C 11.101562 0.46875 9.039062 -0.0078125 7.28125 -0.96875 C 5.53125 -1.9375 4.175781 -3.304688 3.21875 -5.078125 C 2.257812 -6.847656 1.78125 -8.957031 1.78125 -11.40625 C 1.78125 -13.851562 2.257812 -15.96875 3.21875 -17.75 C 4.175781 -19.539062 5.53125 -20.914062 7.28125 -21.875 C 9.039062 -22.832031 11.101562 -23.3125 13.46875 -23.3125 C 15.84375 -23.3125 17.898438 -22.832031 19.640625 -21.875 C 21.390625 -20.914062 22.742188 -19.539062 23.703125 -17.75 C 24.660156 -15.96875 25.140625 -13.851562 25.140625 -11.40625 C 25.140625 -10.019531 24.894531 -8.695312 24.40625 -7.4375 C 23.925781 -6.1875 23.203125 -5.109375 22.234375 -4.203125 Z M 7.875 -11.40625 C 7.875 -9.007812 8.375 -7.160156 9.375 -5.859375 C 10.375 -4.554688 11.738281 -3.90625 13.46875 -3.90625 C 15.1875 -3.90625 16.546875 -4.554688 17.546875 -5.859375 C 18.546875 -7.160156 19.046875 -9.007812 19.046875 -11.40625 C 19.046875 -13.832031 18.546875 -15.695312 17.546875 -17 C 16.546875 -18.300781 15.1875 -18.953125 13.46875 -18.953125 C 11.738281 -18.953125 10.375 -18.300781 9.375 -17 C 8.375 -15.695312 7.875 -13.832031 7.875 -11.40625 Z M 7.875 -11.40625 "/></g></g></g><g fill="#000000" fill-opacity="1"><g transform="translate(275.122778, 269.176548)"><g><path d="M 22.5 -22.828125 L 22.5 -10.015625 C 22.5 -9.441406 22.488281 -8.9375 22.46875 -8.5 C 22.457031 -8.0625 22.429688 -7.5 22.390625 -6.8125 C 22.304688 -5.53125 21.921875 -4.335938 21.234375 -3.234375 C 20.546875 -2.140625 19.484375 -1.25 18.046875 -0.5625 C 16.617188 0.125 14.726562 0.46875 12.375 0.46875 C 10.03125 0.46875 8.132812 0.125 6.6875 -0.5625 C 5.25 -1.25 4.1875 -2.140625 3.5 -3.234375 C 2.820312 -4.335938 2.4375 -5.53125 2.34375 -6.8125 C 2.300781 -7.5 2.273438 -8.0625 2.265625 -8.5 C 2.253906 -8.9375 2.25 -9.441406 2.25 -10.015625 L 2.25 -22.828125 L 8.203125 -22.828125 L 8.203125 -8.9375 C 8.203125 -8.625 8.203125 -8.367188 8.203125 -8.171875 C 8.203125 -7.972656 8.210938 -7.773438 8.234375 -7.578125 C 8.410156 -5.128906 9.789062 -3.90625 12.375 -3.90625 C 14.945312 -3.90625 16.320312 -5.128906 16.5 -7.578125 C 16.53125 -7.773438 16.546875 -7.972656 16.546875 -8.171875 C 16.546875 -8.367188 16.546875 -8.625 16.546875 -8.9375 L 16.546875 -22.828125 Z M 22.5 -22.828125 "/></g></g></g><g fill="#000000" fill-opacity="1"><g transform="translate(298.863504, 269.176548)"><g><path d="M 20.140625 -4.625 L 20.140625 0 L 2.640625 0 L 2.640625 -22.828125 L 19.8125 -22.828125 L 19.8125 -18.1875 L 8.59375 -18.1875 L 8.59375 -13.765625 L 19.15625 -13.765625 L 19.15625 -9.125 L 8.59375 -9.125 L 8.59375 -4.625 Z M 20.140625 -4.625 "/></g></g></g><g fill="#545454" fill-opacity="1"><g transform="translate(86.305187, 289.569619)"><g><path d="M 1.109375 -9.09375 C 1.273438 -9.125 1.457031 -9.144531 1.65625 -9.15625 C 1.863281 -9.164062 2.078125 -9.171875 2.296875 -9.171875 C 2.515625 -9.179688 2.726562 -9.1875 2.9375 -9.1875 C 3.15625 -9.195312 3.351562 -9.203125 3.53125 -9.203125 C 4.257812 -9.203125 4.890625 -9.085938 5.421875 -8.859375 C 5.960938 -8.640625 6.40625 -8.328125 6.75 -7.921875 C 7.09375 -7.515625 7.347656 -7.03125 7.515625 -6.46875 C 7.691406 -5.90625 7.78125 -5.285156 7.78125 -4.609375 C 7.78125 -3.992188 7.695312 -3.398438 7.53125 -2.828125 C 7.375 -2.265625 7.117188 -1.765625 6.765625 -1.328125 C 6.421875 -0.890625 5.972656 -0.539062 5.421875 -0.28125 C 4.867188 -0.0195312 4.195312 0.109375 3.40625 0.109375 C 3.269531 0.109375 3.085938 0.109375 2.859375 0.109375 C 2.640625 0.109375 2.410156 0.0976562 2.171875 0.078125 C 1.941406 0.0664062 1.726562 0.0546875 1.53125 0.046875 C 1.332031 0.0351562 1.191406 0.0234375 1.109375 0.015625 Z M 3.5625 -8.234375 C 3.445312 -8.234375 3.320312 -8.234375 3.1875 -8.234375 C 3.050781 -8.234375 2.914062 -8.226562 2.78125 -8.21875 C 2.65625 -8.21875 2.539062 -8.210938 2.4375 -8.203125 C 2.332031 -8.191406 2.25 -8.179688 2.1875 -8.171875 L 2.1875 -0.890625 C 2.226562 -0.890625 2.304688 -0.882812 2.421875 -0.875 C 2.546875 -0.875 2.671875 -0.867188 2.796875 -0.859375 C 2.929688 -0.859375 3.054688 -0.851562 3.171875 -0.84375 C 3.296875 -0.84375 3.382812 -0.84375 3.4375 -0.84375 C 4.039062 -0.84375 4.546875 -0.945312 4.953125 -1.15625 C 5.367188 -1.363281 5.695312 -1.640625 5.9375 -1.984375 C 6.1875 -2.335938 6.363281 -2.742188 6.46875 -3.203125 C 6.570312 -3.660156 6.625 -4.128906 6.625 -4.609375 C 6.625 -5.035156 6.578125 -5.460938 6.484375 -5.890625 C 6.390625 -6.316406 6.222656 -6.703125 5.984375 -7.046875 C 5.753906 -7.398438 5.441406 -7.6875 5.046875 -7.90625 C 4.648438 -8.125 4.15625 -8.234375 3.5625 -8.234375 Z M 3.5625 -8.234375 "/></g></g></g><g fill="#545454" fill-opacity="1"><g transform="translate(95.805591, 289.569619)"><g><path d="M 1.109375 -9.09375 L 6.0625 -9.09375 L 6.0625 -8.140625 L 2.1875 -8.140625 L 2.1875 -5.15625 L 5.734375 -5.15625 L 5.734375 -4.203125 L 2.1875 -4.203125 L 2.1875 -0.96875 L 6.125 -0.96875 L 6.125 0 L 1.109375 0 Z M 1.109375 -9.09375 "/></g></g></g><g fill="#545454" fill-opacity="1"><g transform="translate(103.772465, 289.569619)"><g><path d="M 6.484375 0 L 1.109375 0 L 1.109375 -9.09375 L 2.1875 -9.09375 L 2.1875 -0.96875 L 6.484375 -0.96875 Z M 6.484375 0 "/></g></g></g><g fill="#545454" fill-opacity="1"><g transform="translate(111.49241, 289.569619)"><g><path d="M 1.359375 -9.09375 L 2.4375 -9.09375 L 2.4375 0 L 1.359375 0 Z M 1.359375 -9.09375 "/></g></g></g><g fill="#545454" fill-opacity="1"><g transform="translate(116.27525, 289.569619)"><g><path d="M 3.46875 -2.84375 L 3.78125 -1.46875 L 3.796875 -1.46875 L 4.140625 -2.875 L 6.328125 -9.09375 L 7.40625 -9.09375 L 3.96875 0.140625 L 3.484375 0.140625 L -0.03125 -9.09375 L 1.15625 -9.09375 Z M 3.46875 -2.84375 "/></g></g></g><g fill="#545454" fill-opacity="1"><g transform="translate(124.65799, 289.569619)"><g><path d="M 1.109375 -9.09375 L 6.0625 -9.09375 L 6.0625 -8.140625 L 2.1875 -8.140625 L 2.1875 -5.15625 L 5.734375 -5.15625 L 5.734375 -4.203125 L 2.1875 -4.203125 L 2.1875 -0.96875 L 6.125 -0.96875 L 6.125 0 L 1.109375 0 Z M 1.109375 -9.09375 "/></g></g></g><g fill="#545454" fill-opacity="1"><g transform="translate(132.624862, 289.569619)"><g><path d="M 1.109375 -9.015625 C 1.429688 -9.066406 1.804688 -9.109375 2.234375 -9.140625 C 2.671875 -9.179688 3.066406 -9.203125 3.421875 -9.203125 C 3.816406 -9.203125 4.191406 -9.15625 4.546875 -9.0625 C 4.910156 -8.976562 5.226562 -8.835938 5.5 -8.640625 C 5.78125 -8.441406 6 -8.179688 6.15625 -7.859375 C 6.320312 -7.546875 6.40625 -7.15625 6.40625 -6.6875 C 6.40625 -5.976562 6.207031 -5.398438 5.8125 -4.953125 C 5.425781 -4.515625 4.9375 -4.222656 4.34375 -4.078125 L 4.96875 -3.59375 L 7.234375 0 L 5.96875 0 L 3.453125 -3.921875 L 2.1875 -4.125 L 2.1875 0 L 1.109375 0 Z M 3.4375 -8.265625 C 3.332031 -8.265625 3.21875 -8.265625 3.09375 -8.265625 C 2.96875 -8.265625 2.847656 -8.257812 2.734375 -8.25 C 2.628906 -8.238281 2.523438 -8.226562 2.421875 -8.21875 C 2.328125 -8.21875 2.25 -8.207031 2.1875 -8.1875 L 2.1875 -4.84375 L 3.203125 -4.84375 C 3.796875 -4.84375 4.285156 -4.988281 4.671875 -5.28125 C 5.066406 -5.570312 5.265625 -6.03125 5.265625 -6.65625 C 5.265625 -7.125 5.101562 -7.507812 4.78125 -7.8125 C 4.457031 -8.113281 4.007812 -8.265625 3.4375 -8.265625 Z M 3.4375 -8.265625 "/></g></g></g><g fill="#545454" fill-opacity="1"><g transform="translate(141.358503, 289.569619)"><g><path d="M 3.109375 -3.609375 L 0.109375 -9.09375 L 1.359375 -9.09375 L 3.5 -5.125 L 3.71875 -4.328125 L 3.734375 -4.328125 L 3.96875 -5.140625 L 6 -9.09375 L 7.15625 -9.09375 L 4.1875 -3.625 L 4.1875 0 L 3.109375 0 Z M 3.109375 -3.609375 "/></g></g></g><g fill="#545454" fill-opacity="1"><g transform="translate(149.611284, 289.569619)"><g/></g></g><g fill="#545454" fill-opacity="1"><g transform="translate(154.082227, 289.569619)"><g><path d="M 1.53125 -2.4375 C 1.53125 -2.78125 1.585938 -3.109375 1.703125 -3.421875 C 1.828125 -3.742188 1.992188 -4.035156 2.203125 -4.296875 C 2.410156 -4.566406 2.644531 -4.8125 2.90625 -5.03125 C 3.175781 -5.257812 3.457031 -5.460938 3.75 -5.640625 C 3.539062 -5.953125 3.359375 -6.265625 3.203125 -6.578125 C 3.054688 -6.890625 2.984375 -7.226562 2.984375 -7.59375 C 2.984375 -7.800781 3.015625 -8.003906 3.078125 -8.203125 C 3.148438 -8.398438 3.257812 -8.578125 3.40625 -8.734375 C 3.5625 -8.890625 3.757812 -9.015625 4 -9.109375 C 4.238281 -9.203125 4.523438 -9.25 4.859375 -9.25 C 5.210938 -9.25 5.507812 -9.203125 5.75 -9.109375 C 6 -9.023438 6.195312 -8.910156 6.34375 -8.765625 C 6.488281 -8.617188 6.59375 -8.453125 6.65625 -8.265625 C 6.726562 -8.085938 6.765625 -7.898438 6.765625 -7.703125 C 6.765625 -7.335938 6.625 -6.960938 6.34375 -6.578125 C 6.0625 -6.191406 5.613281 -5.820312 5 -5.46875 C 5.144531 -5.21875 5.304688 -4.957031 5.484375 -4.6875 C 5.671875 -4.425781 5.867188 -4.164062 6.078125 -3.90625 C 6.285156 -3.644531 6.5 -3.382812 6.71875 -3.125 C 6.9375 -2.875 7.15625 -2.644531 7.375 -2.4375 C 7.46875 -2.539062 7.5625 -2.671875 7.65625 -2.828125 C 7.75 -2.984375 7.84375 -3.148438 7.9375 -3.328125 C 8.03125 -3.503906 8.113281 -3.6875 8.1875 -3.875 C 8.257812 -4.070312 8.328125 -4.257812 8.390625 -4.4375 L 9.1875 -4.0625 C 9.132812 -3.90625 9.0625 -3.722656 8.96875 -3.515625 C 8.875 -3.316406 8.765625 -3.113281 8.640625 -2.90625 C 8.523438 -2.695312 8.40625 -2.492188 8.28125 -2.296875 C 8.164062 -2.097656 8.054688 -1.9375 7.953125 -1.8125 C 8.140625 -1.632812 8.304688 -1.484375 8.453125 -1.359375 C 8.597656 -1.234375 8.734375 -1.125 8.859375 -1.03125 C 8.984375 -0.9375 9.101562 -0.851562 9.21875 -0.78125 C 9.34375 -0.707031 9.460938 -0.640625 9.578125 -0.578125 L 8.9375 0.15625 C 8.46875 -0.0703125 7.941406 -0.472656 7.359375 -1.046875 C 7.203125 -0.890625 7.03125 -0.738281 6.84375 -0.59375 C 6.65625 -0.457031 6.441406 -0.332031 6.203125 -0.21875 C 5.972656 -0.101562 5.71875 -0.015625 5.4375 0.046875 C 5.15625 0.117188 4.847656 0.15625 4.515625 0.15625 C 4.109375 0.15625 3.722656 0.0976562 3.359375 -0.015625 C 3.003906 -0.128906 2.691406 -0.296875 2.421875 -0.515625 C 2.148438 -0.734375 1.929688 -1.003906 1.765625 -1.328125 C 1.609375 -1.648438 1.53125 -2.019531 1.53125 -2.4375 Z M 6.75 -1.703125 C 6.5 -1.953125 6.25 -2.222656 6 -2.515625 C 5.757812 -2.816406 5.53125 -3.113281 5.3125 -3.40625 C 5.09375 -3.695312 4.890625 -3.976562 4.703125 -4.25 C 4.515625 -4.53125 4.351562 -4.773438 4.21875 -4.984375 C 3.988281 -4.804688 3.773438 -4.625 3.578125 -4.4375 C 3.378906 -4.257812 3.203125 -4.066406 3.046875 -3.859375 C 2.898438 -3.660156 2.785156 -3.441406 2.703125 -3.203125 C 2.617188 -2.972656 2.578125 -2.722656 2.578125 -2.453125 C 2.578125 -2.179688 2.628906 -1.941406 2.734375 -1.734375 C 2.847656 -1.523438 3.003906 -1.347656 3.203125 -1.203125 C 3.398438 -1.054688 3.625 -0.941406 3.875 -0.859375 C 4.125 -0.785156 4.390625 -0.75 4.671875 -0.75 C 4.878906 -0.75 5.085938 -0.773438 5.296875 -0.828125 C 5.503906 -0.890625 5.695312 -0.960938 5.875 -1.046875 C 6.0625 -1.140625 6.226562 -1.238281 6.375 -1.34375 C 6.53125 -1.457031 6.65625 -1.578125 6.75 -1.703125 Z M 3.984375 -7.59375 C 3.984375 -7.332031 4.035156 -7.070312 4.140625 -6.8125 C 4.253906 -6.5625 4.398438 -6.3125 4.578125 -6.0625 C 5.035156 -6.351562 5.351562 -6.617188 5.53125 -6.859375 C 5.707031 -7.109375 5.796875 -7.320312 5.796875 -7.5 C 5.796875 -7.78125 5.726562 -8.003906 5.59375 -8.171875 C 5.457031 -8.347656 5.226562 -8.4375 4.90625 -8.4375 C 4.59375 -8.4375 4.359375 -8.359375 4.203125 -8.203125 C 4.054688 -8.046875 3.984375 -7.84375 3.984375 -7.59375 Z M 3.984375 -7.59375 "/></g></g></g><g fill="#545454" fill-opacity="1"><g transform="translate(165.661988, 289.569619)"><g/></g></g><g fill="#545454" fill-opacity="1"><g transform="translate(170.132931, 289.569619)"><g><path d="M 6.984375 -8.140625 L 4.140625 -8.140625 L 4.140625 0 L 3.0625 0 L 3.0625 -8.140625 L 0.234375 -8.140625 L 0.234375 -9.09375 L 6.984375 -9.09375 Z M 6.984375 -8.140625 "/></g></g></g><g fill="#545454" fill-opacity="1"><g transform="translate(178.346721, 289.569619)"><g><path d="M 1.109375 -9.015625 C 1.429688 -9.066406 1.804688 -9.109375 2.234375 -9.140625 C 2.671875 -9.179688 3.066406 -9.203125 3.421875 -9.203125 C 3.816406 -9.203125 4.191406 -9.15625 4.546875 -9.0625 C 4.910156 -8.976562 5.226562 -8.835938 5.5 -8.640625 C 5.78125 -8.441406 6 -8.179688 6.15625 -7.859375 C 6.320312 -7.546875 6.40625 -7.15625 6.40625 -6.6875 C 6.40625 -5.976562 6.207031 -5.398438 5.8125 -4.953125 C 5.425781 -4.515625 4.9375 -4.222656 4.34375 -4.078125 L 4.96875 -3.59375 L 7.234375 0 L 5.96875 0 L 3.453125 -3.921875 L 2.1875 -4.125 L 2.1875 0 L 1.109375 0 Z M 3.4375 -8.265625 C 3.332031 -8.265625 3.21875 -8.265625 3.09375 -8.265625 C 2.96875 -8.265625 2.847656 -8.257812 2.734375 -8.25 C 2.628906 -8.238281 2.523438 -8.226562 2.421875 -8.21875 C 2.328125 -8.21875 2.25 -8.207031 2.1875 -8.1875 L 2.1875 -4.84375 L 3.203125 -4.84375 C 3.796875 -4.84375 4.285156 -4.988281 4.671875 -5.28125 C 5.066406 -5.570312 5.265625 -6.03125 5.265625 -6.65625 C 5.265625 -7.125 5.101562 -7.507812 4.78125 -7.8125 C 4.457031 -8.113281 4.007812 -8.265625 3.4375 -8.265625 Z M 3.4375 -8.265625 "/></g></g></g><g fill="#545454" fill-opacity="1"><g transform="translate(187.080365, 289.569619)"><g><path d="M 5.4375 -2.515625 L 2.078125 -2.515625 L 1.171875 0 L 0.109375 0 L 3.546875 -9.25 L 4.046875 -9.25 L 7.5 0 L 6.375 0 Z M 2.4375 -3.453125 L 5.109375 -3.453125 L 4.09375 -6.234375 L 3.765625 -7.609375 L 3.75 -7.609375 L 3.4375 -6.203125 Z M 2.4375 -3.453125 "/></g></g></g><g fill="#545454" fill-opacity="1"><g transform="translate(195.684033, 289.569619)"><g><path d="M 2.75 -5.953125 L 2.046875 -7.265625 L 1.984375 -7.265625 L 2.125 -5.953125 L 2.125 0 L 1.109375 0 L 1.109375 -9.25 L 1.671875 -9.25 L 6.03125 -3.171875 L 6.703125 -1.921875 L 6.765625 -1.921875 L 6.625 -3.171875 L 6.625 -9.09375 L 7.640625 -9.09375 L 7.640625 0.140625 L 7.078125 0.140625 Z M 2.75 -5.953125 "/></g></g></g><g fill="#545454" fill-opacity="1"><g transform="translate(205.431354, 289.569619)"><g><path d="M 5.21875 -2.3125 C 5.21875 -2.675781 5.109375 -2.972656 4.890625 -3.203125 C 4.671875 -3.429688 4.398438 -3.632812 4.078125 -3.8125 C 3.753906 -3.988281 3.398438 -4.15625 3.015625 -4.3125 C 2.628906 -4.46875 2.273438 -4.65625 1.953125 -4.875 C 1.628906 -5.101562 1.359375 -5.378906 1.140625 -5.703125 C 0.921875 -6.023438 0.8125 -6.4375 0.8125 -6.9375 C 0.8125 -7.65625 1.054688 -8.21875 1.546875 -8.625 C 2.046875 -9.039062 2.753906 -9.25 3.671875 -9.25 C 4.191406 -9.25 4.671875 -9.207031 5.109375 -9.125 C 5.546875 -9.050781 5.882812 -8.957031 6.125 -8.84375 L 5.796875 -7.890625 C 5.597656 -7.984375 5.304688 -8.070312 4.921875 -8.15625 C 4.535156 -8.25 4.097656 -8.296875 3.609375 -8.296875 C 3.035156 -8.296875 2.601562 -8.164062 2.3125 -7.90625 C 2.03125 -7.65625 1.890625 -7.351562 1.890625 -7 C 1.890625 -6.664062 2 -6.382812 2.21875 -6.15625 C 2.4375 -5.9375 2.707031 -5.738281 3.03125 -5.5625 C 3.351562 -5.382812 3.707031 -5.207031 4.09375 -5.03125 C 4.476562 -4.851562 4.832031 -4.648438 5.15625 -4.421875 C 5.476562 -4.191406 5.75 -3.914062 5.96875 -3.59375 C 6.1875 -3.28125 6.296875 -2.882812 6.296875 -2.40625 C 6.296875 -2.007812 6.222656 -1.65625 6.078125 -1.34375 C 5.941406 -1.039062 5.738281 -0.773438 5.46875 -0.546875 C 5.195312 -0.316406 4.867188 -0.140625 4.484375 -0.015625 C 4.109375 0.0976562 3.679688 0.15625 3.203125 0.15625 C 2.546875 0.15625 2.003906 0.101562 1.578125 0 C 1.160156 -0.09375 0.832031 -0.203125 0.59375 -0.328125 L 0.96875 -1.296875 C 1.164062 -1.179688 1.457031 -1.070312 1.84375 -0.96875 C 2.238281 -0.863281 2.675781 -0.8125 3.15625 -0.8125 C 3.445312 -0.8125 3.71875 -0.835938 3.96875 -0.890625 C 4.21875 -0.941406 4.429688 -1.03125 4.609375 -1.15625 C 4.796875 -1.289062 4.941406 -1.453125 5.046875 -1.640625 C 5.160156 -1.828125 5.21875 -2.050781 5.21875 -2.3125 Z M 5.21875 -2.3125 "/></g></g></g><g fill="#545454" fill-opacity="1"><g transform="translate(213.333247, 289.569619)"><g><path d="M 1.109375 -9.015625 C 1.429688 -9.085938 1.785156 -9.132812 2.171875 -9.15625 C 2.554688 -9.1875 2.929688 -9.203125 3.296875 -9.203125 C 3.703125 -9.203125 4.109375 -9.160156 4.515625 -9.078125 C 4.929688 -9.003906 5.304688 -8.863281 5.640625 -8.65625 C 5.984375 -8.445312 6.257812 -8.160156 6.46875 -7.796875 C 6.675781 -7.429688 6.78125 -6.96875 6.78125 -6.40625 C 6.78125 -5.851562 6.679688 -5.382812 6.484375 -5 C 6.285156 -4.625 6.019531 -4.316406 5.6875 -4.078125 C 5.363281 -3.835938 4.988281 -3.664062 4.5625 -3.5625 C 4.132812 -3.457031 3.695312 -3.40625 3.25 -3.40625 C 3.207031 -3.40625 3.132812 -3.40625 3.03125 -3.40625 C 2.9375 -3.40625 2.832031 -3.40625 2.71875 -3.40625 C 2.613281 -3.414062 2.507812 -3.421875 2.40625 -3.421875 C 2.300781 -3.429688 2.226562 -3.441406 2.1875 -3.453125 L 2.1875 0 L 1.109375 0 Z M 3.328125 -8.265625 C 3.097656 -8.265625 2.878906 -8.257812 2.671875 -8.25 C 2.460938 -8.238281 2.300781 -8.21875 2.1875 -8.1875 L 2.1875 -4.421875 C 2.226562 -4.398438 2.296875 -4.382812 2.390625 -4.375 C 2.484375 -4.375 2.582031 -4.375 2.6875 -4.375 C 2.789062 -4.375 2.890625 -4.375 2.984375 -4.375 C 3.085938 -4.375 3.160156 -4.375 3.203125 -4.375 C 3.492188 -4.375 3.785156 -4.398438 4.078125 -4.453125 C 4.367188 -4.503906 4.628906 -4.601562 4.859375 -4.75 C 5.097656 -4.90625 5.285156 -5.113281 5.421875 -5.375 C 5.566406 -5.644531 5.640625 -5.988281 5.640625 -6.40625 C 5.640625 -6.757812 5.570312 -7.054688 5.4375 -7.296875 C 5.300781 -7.535156 5.125 -7.726562 4.90625 -7.875 C 4.6875 -8.019531 4.4375 -8.117188 4.15625 -8.171875 C 3.882812 -8.234375 3.609375 -8.265625 3.328125 -8.265625 Z M 3.328125 -8.265625 "/></g></g></g><g fill="#545454" fill-opacity="1"><g transform="translate(221.599028, 289.569619)"><g><path d="M 0.734375 -4.546875 C 0.734375 -6.066406 1.050781 -7.226562 1.6875 -8.03125 C 2.332031 -8.84375 3.25 -9.25 4.4375 -9.25 C 5.070312 -9.25 5.625 -9.132812 6.09375 -8.90625 C 6.5625 -8.6875 6.945312 -8.367188 7.25 -7.953125 C 7.5625 -7.546875 7.789062 -7.050781 7.9375 -6.46875 C 8.082031 -5.894531 8.15625 -5.253906 8.15625 -4.546875 C 8.15625 -3.035156 7.832031 -1.875 7.1875 -1.0625 C 6.550781 -0.25 5.632812 0.15625 4.4375 0.15625 C 3.800781 0.15625 3.25 0.046875 2.78125 -0.171875 C 2.320312 -0.398438 1.9375 -0.71875 1.625 -1.125 C 1.320312 -1.539062 1.097656 -2.035156 0.953125 -2.609375 C 0.804688 -3.191406 0.734375 -3.835938 0.734375 -4.546875 Z M 1.875 -4.546875 C 1.875 -4.046875 1.921875 -3.566406 2.015625 -3.109375 C 2.117188 -2.660156 2.273438 -2.265625 2.484375 -1.921875 C 2.691406 -1.585938 2.957031 -1.316406 3.28125 -1.109375 C 3.601562 -0.910156 3.988281 -0.8125 4.4375 -0.8125 C 5.238281 -0.8125 5.867188 -1.113281 6.328125 -1.71875 C 6.785156 -2.332031 7.015625 -3.273438 7.015625 -4.546875 C 7.015625 -5.046875 6.960938 -5.519531 6.859375 -5.96875 C 6.765625 -6.425781 6.609375 -6.828125 6.390625 -7.171875 C 6.179688 -7.515625 5.914062 -7.785156 5.59375 -7.984375 C 5.269531 -8.191406 4.882812 -8.296875 4.4375 -8.296875 C 3.632812 -8.296875 3.003906 -7.988281 2.546875 -7.375 C 2.097656 -6.769531 1.875 -5.828125 1.875 -4.546875 Z M 1.875 -4.546875 "/></g></g></g><g fill="#545454" fill-opacity="1"><g transform="translate(231.489309, 289.569619)"><g><path d="M 1.109375 -9.015625 C 1.429688 -9.066406 1.804688 -9.109375 2.234375 -9.140625 C 2.671875 -9.179688 3.066406 -9.203125 3.421875 -9.203125 C 3.816406 -9.203125 4.191406 -9.15625 4.546875 -9.0625 C 4.910156 -8.976562 5.226562 -8.835938 5.5 -8.640625 C 5.78125 -8.441406 6 -8.179688 6.15625 -7.859375 C 6.320312 -7.546875 6.40625 -7.15625 6.40625 -6.6875 C 6.40625 -5.976562 6.207031 -5.398438 5.8125 -4.953125 C 5.425781 -4.515625 4.9375 -4.222656 4.34375 -4.078125 L 4.96875 -3.59375 L 7.234375 0 L 5.96875 0 L 3.453125 -3.921875 L 2.1875 -4.125 L 2.1875 0 L 1.109375 0 Z M 3.4375 -8.265625 C 3.332031 -8.265625 3.21875 -8.265625 3.09375 -8.265625 C 2.96875 -8.265625 2.847656 -8.257812 2.734375 -8.25 C 2.628906 -8.238281 2.523438 -8.226562 2.421875 -8.21875 C 2.328125 -8.21875 2.25 -8.207031 2.1875 -8.1875 L 2.1875 -4.84375 L 3.203125 -4.84375 C 3.796875 -4.84375 4.285156 -4.988281 4.671875 -5.28125 C 5.066406 -5.570312 5.265625 -6.03125 5.265625 -6.65625 C 5.265625 -7.125 5.101562 -7.507812 4.78125 -7.8125 C 4.457031 -8.113281 4.007812 -8.265625 3.4375 -8.265625 Z M 3.4375 -8.265625 "/></g></g></g><g fill="#545454" fill-opacity="1"><g transform="translate(240.222947, 289.569619)"><g><path d="M 6.984375 -8.140625 L 4.140625 -8.140625 L 4.140625 0 L 3.0625 0 L 3.0625 -8.140625 L 0.234375 -8.140625 L 0.234375 -9.09375 L 6.984375 -9.09375 Z M 6.984375 -8.140625 "/></g></g></g><g fill="#545454" fill-opacity="1"><g transform="translate(248.436738, 289.569619)"><g><path d="M 5.4375 -2.515625 L 2.078125 -2.515625 L 1.171875 0 L 0.109375 0 L 3.546875 -9.25 L 4.046875 -9.25 L 7.5 0 L 6.375 0 Z M 2.4375 -3.453125 L 5.109375 -3.453125 L 4.09375 -6.234375 L 3.765625 -7.609375 L 3.75 -7.609375 L 3.4375 -6.203125 Z M 2.4375 -3.453125 "/></g></g></g><g fill="#545454" fill-opacity="1"><g transform="translate(257.040405, 289.569619)"><g><path d="M 6.984375 -8.140625 L 4.140625 -8.140625 L 4.140625 0 L 3.0625 0 L 3.0625 -8.140625 L 0.234375 -8.140625 L 0.234375 -9.09375 L 6.984375 -9.09375 Z M 6.984375 -8.140625 "/></g></g></g><g fill="#545454" fill-opacity="1"><g transform="translate(265.254196, 289.569619)"><g><path d="M 1.359375 -9.09375 L 2.4375 -9.09375 L 2.4375 0 L 1.359375 0 Z M 1.359375 -9.09375 "/></g></g></g><g fill="#545454" fill-opacity="1"><g transform="translate(270.037036, 289.569619)"><g><path d="M 0.734375 -4.546875 C 0.734375 -6.066406 1.050781 -7.226562 1.6875 -8.03125 C 2.332031 -8.84375 3.25 -9.25 4.4375 -9.25 C 5.070312 -9.25 5.625 -9.132812 6.09375 -8.90625 C 6.5625 -8.6875 6.945312 -8.367188 7.25 -7.953125 C 7.5625 -7.546875 7.789062 -7.050781 7.9375 -6.46875 C 8.082031 -5.894531 8.15625 -5.253906 8.15625 -4.546875 C 8.15625 -3.035156 7.832031 -1.875 7.1875 -1.0625 C 6.550781 -0.25 5.632812 0.15625 4.4375 0.15625 C 3.800781 0.15625 3.25 0.046875 2.78125 -0.171875 C 2.320312 -0.398438 1.9375 -0.71875 1.625 -1.125 C 1.320312 -1.539062 1.097656 -2.035156 0.953125 -2.609375 C 0.804688 -3.191406 0.734375 -3.835938 0.734375 -4.546875 Z M 1.875 -4.546875 C 1.875 -4.046875 1.921875 -3.566406 2.015625 -3.109375 C 2.117188 -2.660156 2.273438 -2.265625 2.484375 -1.921875 C 2.691406 -1.585938 2.957031 -1.316406 3.28125 -1.109375 C 3.601562 -0.910156 3.988281 -0.8125 4.4375 -0.8125 C 5.238281 -0.8125 5.867188 -1.113281 6.328125 -1.71875 C 6.785156 -2.332031 7.015625 -3.273438 7.015625 -4.546875 C 7.015625 -5.046875 6.960938 -5.519531 6.859375 -5.96875 C 6.765625 -6.425781 6.609375 -6.828125 6.390625 -7.171875 C 6.179688 -7.515625 5.914062 -7.785156 5.59375 -7.984375 C 5.269531 -8.191406 4.882812 -8.296875 4.4375 -8.296875 C 3.632812 -8.296875 3.003906 -7.988281 2.546875 -7.375 C 2.097656 -6.769531 1.875 -5.828125 1.875 -4.546875 Z M 1.875 -4.546875 "/></g></g></g><g fill="#545454" fill-opacity="1"><g transform="translate(279.927328, 289.569619)"><g><path d="M 2.75 -5.953125 L 2.046875 -7.265625 L 1.984375 -7.265625 L 2.125 -5.953125 L 2.125 0 L 1.109375 0 L 1.109375 -9.25 L 1.671875 -9.25 L 6.03125 -3.171875 L 6.703125 -1.921875 L 6.765625 -1.921875 L 6.625 -3.171875 L 6.625 -9.09375 L 7.640625 -9.09375 L 7.640625 0.140625 L 7.078125 0.140625 Z M 2.75 -5.953125 "/></g></g></g></svg>