<svg xmlns="http://www.w3.org/2000/svg" xmlns:xlink="http://www.w3.org/1999/xlink" width="500" zoomAndPan="magnify" viewBox="0 0 375 187.499995" height="250" preserveAspectRatio="xMidYMid meet" version="1.0"><defs><filter x="0%" y="0%" width="100%" height="100%" id="6e88a2e2a0"><feColorMatrix values="0 0 0 0 1 0 0 0 0 1 0 0 0 0 1 0 0 0 1 0" color-interpolation-filters="sRGB"/></filter><g/><mask id="19f5cc6799"><g filter="url(#6e88a2e2a0)"><rect x="-37.5" width="450" fill="#000000" y="-18.749999" height="224.999994" fill-opacity="0.1"/></g></mask><clipPath id="1958cbf854"><path d="M 9 66 L 337.800781 66 L 337.800781 181 L 9 181 Z M 9 66 " clip-rule="nonzero"/></clipPath><clipPath id="aebd70175e"><path d="M 1.199219 1 L 312 1 L 312 184.789062 L 1.199219 184.789062 Z M 1.199219 1 " clip-rule="nonzero"/></clipPath><clipPath id="68520df189"><rect x="0" width="339" y="0" height="185"/></clipPath></defs><g mask="url(#19f5cc6799)"><g transform="matrix(1, 0, 0, 1, 18, 0)"><g clip-path="url(#68520df189)"><g clip-path="url(#1958cbf854)"><path fill="#d9d9d9" d="M 337.800781 140.761719 C 337.800781 140.761719 337.386719 139.867188 336.695312 138.96875 L 336.695312 129.371094 C 336.695312 129.371094 336.351562 128.128906 335.523438 127.574219 C 335.523438 127.574219 333.796875 114.941406 330.964844 105.410156 C 330.964844 105.410156 329.308594 96.78125 315.566406 94.085938 L 266.339844 94.085938 C 266.339844 94.085938 265.648438 94.085938 264.957031 94.363281 C 265.234375 93.671875 265.921875 93.191406 266.683594 93.191406 L 304.453125 92.292969 C 304.105469 89.808594 302.242188 88.976562 299.757812 88.976562 L 260.605469 88.976562 C 259.089844 88.976562 257.570312 89.117188 256.117188 89.53125 L 187.003906 112.800781 L 251.976562 100.578125 L 252.113281 107.898438 L 188.867188 123.777344 L 252.253906 115.90625 L 252.390625 122.050781 L 187.417969 134.480469 L 252.527344 131.648438 L 252.667969 138 L 188.589844 145.734375 L 252.875 148.839844 L 253.011719 155.816406 L 189.003906 157.75 L 257.914062 166.863281 C 257.914062 166.863281 257.222656 153.605469 262.472656 150.636719 C 262.472656 149.046875 262.472656 146.769531 262.472656 144.078125 C 262.679688 144.144531 262.953125 144.214844 263.230469 144.214844 L 263.230469 147.046875 C 263.230469 147.046875 263.230469 147.460938 263.644531 147.597656 L 263.644531 151.878906 C 263.644531 151.878906 258.464844 154.367188 259.433594 168.65625 C 259.433594 168.65625 261.503906 169.140625 262.402344 169.28125 C 262.265625 167.140625 262.265625 164.167969 262.265625 164.167969 C 262.679688 157.265625 264.335938 155.609375 264.335938 155.609375 C 266.753906 151.949219 270.617188 153.261719 270.617188 153.261719 C 268.339844 153.398438 266.128906 155.261719 265.441406 156.296875 C 262.886719 160.097656 263.09375 165.964844 263.4375 169.28125 C 263.507812 170.039062 263.851562 171.210938 264.265625 172.386719 C 264.265625 172.386719 224.082031 168.242188 224.082031 168.242188 L 269.515625 180.050781 L 275.175781 179.914062 L 275.3125 179.914062 C 275.3125 179.914062 279.25 179.84375 280.492188 174.664062 L 309.699219 174.25 C 309.699219 174.25 312.046875 177.980469 315.152344 177.910156 L 320.953125 177.910156 C 320.953125 177.910156 323.441406 177.703125 325.441406 174.183594 L 332.277344 173.628906 C 332.277344 173.628906 335.867188 173.285156 336.144531 171.074219 L 336.144531 150.359375 C 336.214844 150.359375 337.664062 150.566406 337.664062 148.289062 C 337.664062 148.082031 337.664062 140.832031 337.664062 140.832031 Z M 328.894531 106.722656 C 328.894531 106.722656 330.898438 114.523438 332.207031 127.574219 C 332.207031 127.574219 300.585938 128.75 289.746094 128.058594 C 289.746094 128.058594 288.917969 113.351562 288.226562 107.066406 L 328.894531 106.792969 Z M 330.550781 139.382812 L 301.550781 140.003906 L 297.339844 137.105469 L 301.898438 138.207031 L 330.621094 137.792969 L 332 137.105469 Z M 331.3125 142.835938 L 329.859375 145.113281 L 303.070312 145.871094 L 299.410156 143.109375 L 303.625 144.285156 L 329.929688 143.523438 Z M 293.886719 150.292969 L 292.78125 149.671875 C 292.4375 149.464844 292.230469 149.117188 292.230469 148.773438 L 292.023438 143.316406 C 292.023438 142.972656 292.367188 142.558594 292.644531 142.765625 L 293.613281 143.457031 C 293.613281 143.59375 293.886719 150.359375 293.886719 150.359375 Z M 282.148438 99.472656 C 282.148438 99.472656 283.183594 99.335938 283.390625 100.234375 L 283.390625 103.269531 C 283.390625 103.269531 282.703125 104.445312 281.253906 104.238281 L 272.484375 103.824219 L 282.21875 102.925781 L 282.21875 100.714844 C 282.21875 100.714844 269.375 100.441406 269.375 100.441406 L 282.148438 99.542969 Z M 271.65625 172.523438 C 271.171875 173.214844 270.550781 173.628906 269.929688 173.628906 C 267.996094 173.699219 266.339844 170.589844 266.128906 166.65625 C 265.921875 162.71875 267.304688 159.40625 269.238281 159.335938 C 270.136719 159.335938 270.964844 159.957031 271.65625 161.132812 C 271.515625 161.132812 271.378906 161.132812 271.238281 161.132812 C 269.722656 161.199219 268.617188 163.824219 268.753906 167 C 268.894531 170.039062 270.203125 172.523438 271.65625 172.59375 Z M 277.9375 155.261719 C 274.761719 147.738281 266.128906 149.324219 266.128906 149.324219 L 266.128906 147.046875 C 277.660156 146.078125 278.074219 155.609375 277.9375 155.261719 Z M 264.820312 141.796875 L 280.285156 140.761719 L 280.285156 135.859375 C 280.285156 135.859375 262.953125 131.511719 262.953125 131.511719 L 283.253906 134.824219 L 283.253906 142.765625 C 283.253906 142.765625 264.75 141.796875 264.75 141.796875 Z M 269.375 122.949219 C 266.613281 122.535156 266.753906 118.875 266.753906 118.875 L 266.753906 107.550781 C 266.753906 107.550781 284.429688 107.207031 284.429688 107.207031 L 284.84375 127.367188 Z M 286.84375 162.71875 C 286.429688 162.71875 286.085938 162.375 286.085938 161.960938 L 286.085938 157.886719 C 286.085938 157.472656 286.429688 157.128906 286.84375 157.128906 L 296.234375 157.128906 C 301.136719 157.335938 300.929688 162.652344 300.929688 162.652344 L 286.84375 162.652344 Z M 329.378906 150.292969 L 304.519531 151.328125 L 300.652344 148.632812 L 304.867188 149.808594 L 329.585938 148.980469 L 330.964844 148.289062 L 329.445312 150.292969 Z M 335.316406 160.785156 C 335.316406 161.132812 335.039062 161.40625 334.695312 161.40625 L 331.171875 161.40625 C 331.171875 156.503906 334.28125 156.089844 334.28125 156.089844 L 335.453125 155.816406 L 335.453125 160.71875 Z M 336.074219 148.359375 C 336.074219 148.359375 336.007812 149.253906 334.210938 149.394531 L 334.210938 143.179688 C 334.210938 142.902344 334.347656 142.558594 334.625 142.421875 L 335.453125 141.867188 C 335.730469 141.730469 336.074219 141.867188 336.074219 142.214844 Z M 192.664062 70.40625 L 112.640625 70.40625 C 111.328125 70.40625 110.292969 71.441406 110.292969 72.753906 L 110.292969 90.289062 C 99.933594 92.222656 91.167969 94.226562 84.46875 95.8125 L 84.46875 94.363281 L 66.035156 94.363281 C 64.859375 94.363281 63.894531 95.332031 63.894531 96.503906 L 63.894531 99.886719 C 62.441406 101.542969 61.0625 103.617188 61.0625 103.617188 L 55.609375 114.800781 C 53.261719 121.152344 46.492188 125.296875 46.492188 125.296875 L 44.351562 126.125 L 44.351562 117.839844 L 31.578125 117.839844 C 30.40625 117.839844 29.4375 118.804688 29.4375 119.980469 L 29.4375 131.785156 L 9.898438 139.242188 L 9.898438 127.023438 C 9.898438 125.78125 10.519531 124.675781 11.554688 123.984375 L 25.226562 115.214844 C 25.78125 114.871094 26.402344 114.664062 27.089844 114.664062 L 44.351562 114.664062 L 44.351562 103.476562 C 44.351562 102.234375 44.972656 101.128906 46.011719 100.441406 L 59.679688 91.671875 C 60.234375 91.324219 60.855469 91.117188 61.546875 91.117188 L 84.46875 91.117188 L 84.46875 82.695312 C 84.46875 81.382812 85.160156 80.140625 86.265625 79.449219 L 105.667969 67.503906 C 106.289062 67.160156 106.976562 66.953125 107.667969 66.953125 L 194.738281 66.953125 C 196.878906 66.953125 198.601562 68.679688 198.601562 70.820312 L 198.601562 84.628906 C 197.359375 84.28125 196.117188 84.007812 194.945312 83.800781 L 194.945312 72.683594 C 194.945312 71.371094 193.90625 70.335938 192.597656 70.335938 Z M 192.664062 70.40625 " fill-opacity="1" fill-rule="nonzero"/></g><g clip-path="url(#aebd70175e)"><path fill="#d9d9d9" d="M 113.605469 182.121094 C 113.605469 182.121094 104.976562 181.707031 103.527344 183.089844 C 103.527344 183.089844 94.824219 186.058594 87.230469 182.398438 C 87.230469 182.398438 93.167969 183.363281 100.695312 181.570312 C 100.695312 181.570312 105.390625 179.914062 113.675781 182.121094 Z M 236.785156 110.589844 C 220.351562 140.488281 207.027344 137.726562 194.183594 164.378906 C 194.183594 164.378906 189.210938 158.09375 184.792969 154.710938 C 184.792969 154.710938 180.789062 150.429688 179.546875 145.664062 C 179.546875 145.664062 178.71875 151.949219 182.585938 156.230469 C 188.246094 162.652344 191.835938 168.65625 192.457031 172.664062 C 192.597656 173.421875 192.527344 174.113281 192.457031 174.734375 L 189.144531 174.734375 C 189.417969 174.734375 189.695312 174.734375 189.972656 174.804688 C 204.195312 176.738281 217.523438 177.011719 217.523438 177.011719 C 206.75 180.121094 194.667969 179.5 183.273438 177.839844 C 172.988281 176.390625 163.25 174.183594 155.585938 173.285156 C 147.164062 172.316406 138.671875 174.527344 132.59375 176.738281 C 127.140625 178.808594 119.542969 180.949219 119.542969 180.949219 C 120.855469 179.359375 124.652344 177.496094 126.171875 176.320312 C 127.832031 175.355469 129.554688 174.527344 131.28125 173.835938 L 68.175781 172.9375 C 79.496094 176.113281 90.960938 178.667969 90.960938 178.667969 C 75.148438 177.425781 50.84375 172.664062 50.84375 172.664062 L 50.773438 172.664062 C 29.164062 167.96875 21.980469 166.863281 14.523438 169.210938 C 9.554688 170.730469 7.273438 172.523438 6.859375 172.871094 C 8.171875 170.867188 9.898438 169.210938 11.902344 167.898438 C 8.863281 164.722656 1.199219 155.675781 1.335938 145.320312 L 46.699219 128.542969 C 46.699219 128.542969 54.15625 127.09375 56.503906 120.738281 L 62.167969 109.691406 C 62.167969 109.691406 63.6875 104.375 71.488281 102.511719 C 81.5 100.164062 122.929688 88.839844 177.957031 85.871094 C 183.273438 85.59375 188.589844 85.871094 193.769531 86.769531 C 203.917969 88.5625 219.25 94.777344 234.164062 101.542969 C 237.546875 103.132812 238.71875 107.277344 236.925781 110.589844 Z M 90.890625 103.890625 L 79.496094 106.515625 L 79.152344 111.003906 L 90.269531 108.378906 L 90.820312 103.890625 Z M 106.703125 100.441406 L 95.308594 103.0625 L 94.757812 107.621094 L 106.148438 104.996094 L 106.769531 100.507812 Z M 311.425781 7.363281 C 312.046875 17.789062 281.667969 27.664062 281.667969 27.664062 C 281.667969 27.664062 247.351562 39.265625 219.386719 47.34375 L 216.761719 47.964844 L 216.761719 48.101562 C 205.992188 51.140625 196.324219 53.558594 190.316406 54.453125 C 168.359375 57.699219 150.824219 54.800781 149.097656 54.660156 C 147.371094 54.523438 147.09375 53.902344 147.09375 53.902344 L 146.542969 52.175781 C 146.335938 51.347656 147.648438 51.210938 147.648438 51.210938 L 120.648438 45.824219 L 125.34375 44.441406 L 152.34375 46.652344 L 145.4375 26.972656 L 149.578125 25.871094 L 169.878906 41.265625 L 195.910156 33.050781 L 190.664062 29.460938 L 139.359375 9.4375 L 152.6875 3.773438 L 233.472656 18.621094 C 233.472656 18.621094 288.292969 1.839844 290.226562 1.703125 C 294.714844 0.945312 298.582031 2.945312 298.582031 2.945312 C 297.753906 2.808594 294.234375 3.292969 294.234375 3.292969 C 291.609375 3.84375 292.4375 5.570312 292.4375 5.570312 C 301.691406 3.015625 308.179688 4.394531 310.042969 5.085938 C 311.976562 5.847656 311.425781 7.296875 311.425781 7.296875 Z M 250.800781 18.066406 C 250.800781 17.582031 250.457031 17.375 249.972656 17.515625 L 249.351562 17.722656 C 248.867188 17.859375 248.523438 18.34375 248.523438 18.828125 L 248.523438 20.136719 C 248.523438 20.621094 248.867188 20.828125 249.285156 20.691406 L 249.90625 20.484375 C 250.386719 20.347656 250.734375 19.863281 250.734375 19.378906 L 250.734375 18.066406 Z M 256.601562 16.132812 C 256.601562 15.652344 256.257812 15.445312 255.773438 15.582031 L 255.152344 15.789062 C 254.667969 15.925781 254.324219 16.410156 254.324219 16.894531 L 254.324219 18.207031 C 254.324219 18.6875 254.667969 18.894531 255.082031 18.757812 L 255.703125 18.550781 C 256.1875 18.414062 256.535156 17.929688 256.535156 17.445312 L 256.535156 16.132812 Z M 262.402344 14.199219 C 262.402344 13.71875 262.058594 13.511719 261.574219 13.648438 L 260.953125 13.855469 C 260.46875 13.992188 260.125 14.476562 260.125 14.960938 L 260.125 16.273438 C 260.125 16.753906 260.46875 16.960938 260.882812 16.824219 L 261.503906 16.617188 C 261.988281 16.480469 262.332031 15.996094 262.332031 15.511719 L 262.332031 14.199219 Z M 268.203125 12.265625 C 268.203125 11.785156 267.855469 11.578125 267.375 11.714844 L 266.753906 11.921875 C 266.269531 12.058594 265.921875 12.542969 265.921875 13.027344 L 265.921875 14.339844 C 265.921875 14.820312 266.269531 15.027344 266.683594 14.890625 L 267.304688 14.683594 C 267.789062 14.546875 268.132812 14.0625 268.132812 13.578125 L 268.132812 12.265625 Z M 274.003906 10.332031 C 274.003906 9.851562 273.65625 9.644531 273.171875 9.78125 L 272.550781 9.988281 C 272.070312 10.125 271.722656 10.609375 271.722656 11.09375 L 271.722656 12.40625 C 271.722656 12.890625 272.070312 13.097656 272.484375 12.957031 L 273.105469 12.75 C 273.585938 12.613281 273.933594 12.128906 273.933594 11.644531 L 273.933594 10.332031 Z M 279.800781 8.402344 C 279.800781 7.917969 279.457031 7.710938 278.972656 7.847656 L 278.351562 8.054688 C 277.867188 8.195312 277.523438 8.675781 277.523438 9.160156 L 277.523438 10.472656 C 277.523438 10.957031 277.867188 11.164062 278.28125 11.023438 L 278.90625 10.816406 C 279.386719 10.679688 279.734375 10.195312 279.734375 9.710938 L 279.734375 8.402344 Z M 214 61.980469 L 222.839844 60.046875 L 243.34375 41.679688 L 219.386719 47.34375 C 218.488281 47.621094 217.589844 47.828125 216.761719 48.101562 L 214 62.050781 Z M 214 61.980469 " fill-opacity="1" fill-rule="nonzero"/></g></g></g></g><g fill="#ffffff" fill-opacity="1"><g transform="translate(7.686539, 109.582772)"><g><path d="M 21 -8.03125 L 11.359375 -8.03125 L 8.75 0 L 0.171875 0 L 11.359375 -30.96875 L 21.21875 -30.96875 L 32.40625 0 L 23.609375 0 Z M 16.203125 -23.828125 L 13.328125 -14.3125 L 19.078125 -14.3125 Z M 16.203125 -23.828125 "/></g></g></g><g fill="#ffffff" fill-opacity="1"><g transform="translate(39.408692, 109.582772)"><g><path d="M 39 -30.96875 L 39 0 L 30.921875 0 L 30.921875 -13.015625 C 30.921875 -14.359375 30.925781 -15.941406 30.9375 -17.765625 C 30.957031 -19.597656 30.984375 -21.289062 31.015625 -22.84375 C 30.742188 -21.289062 30.40625 -19.609375 30 -17.796875 C 29.59375 -15.984375 29.210938 -14.390625 28.859375 -13.015625 L 25.4375 0 L 17.140625 0 L 13.6875 -13.015625 C 13.320312 -14.359375 12.9375 -15.941406 12.53125 -17.765625 C 12.132812 -19.597656 11.816406 -21.289062 11.578125 -22.84375 C 11.640625 -21.289062 11.671875 -19.597656 11.671875 -17.765625 C 11.671875 -15.941406 11.671875 -14.359375 11.671875 -13.015625 L 11.671875 0 L 3.59375 0 L 3.59375 -30.96875 L 16.203125 -30.96875 L 21.453125 -7.859375 L 26.703125 -30.96875 Z M 39 -30.96875 "/></g></g></g><g fill="#ffffff" fill-opacity="1"><g transform="translate(80.822487, 109.582772)"><g/></g></g><g fill="#ffffff" fill-opacity="1"><g transform="translate(88.719377, 109.582772)"><g><path d="M 27.328125 -6.828125 L 27.328125 0 L 3.59375 0 L 3.59375 -30.96875 L 11.671875 -30.96875 L 11.671875 -6.828125 Z M 27.328125 -6.828125 "/></g></g></g><g fill="#ffffff" fill-opacity="1"><g transform="translate(116.896905, 109.582772)"><g><path d="M 18.265625 -31.59375 C 21.492188 -31.59375 24.289062 -30.941406 26.65625 -29.640625 C 29.019531 -28.335938 30.851562 -26.484375 32.15625 -24.078125 C 33.457031 -21.671875 34.109375 -18.804688 34.109375 -15.484375 C 34.109375 -12.160156 33.457031 -9.296875 32.15625 -6.890625 C 30.851562 -4.484375 29.019531 -2.628906 26.65625 -1.328125 C 24.289062 -0.0234375 21.492188 0.625 18.265625 0.625 C 15.066406 0.625 12.273438 -0.0234375 9.890625 -1.328125 C 7.515625 -2.628906 5.675781 -4.484375 4.375 -6.890625 C 3.070312 -9.296875 2.421875 -12.160156 2.421875 -15.484375 C 2.421875 -18.804688 3.070312 -21.671875 4.375 -24.078125 C 5.675781 -26.484375 7.515625 -28.335938 9.890625 -29.640625 C 12.273438 -30.941406 15.066406 -31.59375 18.265625 -31.59375 Z M 18.265625 -5.296875 C 20.597656 -5.296875 22.441406 -6.175781 23.796875 -7.9375 C 25.160156 -9.707031 25.84375 -12.222656 25.84375 -15.484375 C 25.84375 -18.773438 25.160156 -21.296875 23.796875 -23.046875 C 22.441406 -24.796875 20.597656 -25.671875 18.265625 -25.671875 C 15.929688 -25.671875 14.082031 -24.796875 12.71875 -23.046875 C 11.363281 -21.296875 10.6875 -18.773438 10.6875 -15.484375 C 10.6875 -12.222656 11.363281 -9.707031 12.71875 -7.9375 C 14.082031 -6.175781 15.929688 -5.296875 18.265625 -5.296875 Z M 18.265625 -5.296875 "/></g></g></g><g fill="#ffffff" fill-opacity="1"><g transform="translate(152.253428, 109.582772)"><g><path d="M 18.359375 -16.515625 L 32 -16.515625 L 32 0 L 25.71875 0 L 24.953125 -4.75 L 23.609375 -1.34375 C 22.734375 -0.59375 21.734375 -0.078125 20.609375 0.203125 C 19.492188 0.484375 18.113281 0.625 16.46875 0.625 C 13.71875 0.625 11.285156 0.0234375 9.171875 -1.171875 C 7.066406 -2.367188 5.414062 -4.144531 4.21875 -6.5 C 3.019531 -8.863281 2.421875 -11.78125 2.421875 -15.25 C 2.421875 -17.945312 2.835938 -20.3125 3.671875 -22.34375 C 4.515625 -24.382812 5.660156 -26.09375 7.109375 -27.46875 C 8.566406 -28.84375 10.242188 -29.875 12.140625 -30.5625 C 14.035156 -31.25 16.046875 -31.59375 18.171875 -31.59375 C 21.128906 -31.59375 23.601562 -31.113281 25.59375 -30.15625 C 27.582031 -29.195312 29.125 -27.898438 30.21875 -26.265625 C 31.3125 -24.640625 31.960938 -22.8125 32.171875 -20.78125 L 32.21875 -20.328125 L 24.140625 -20.328125 L 24.046875 -20.78125 C 23.390625 -24.039062 21.398438 -25.671875 18.078125 -25.671875 C 16.765625 -25.671875 15.5625 -25.3125 14.46875 -24.59375 C 13.375 -23.875 12.5 -22.78125 11.84375 -21.3125 C 11.1875 -19.84375 10.859375 -17.988281 10.859375 -15.75 C 10.859375 -13.144531 11.191406 -11.078125 11.859375 -9.546875 C 12.535156 -8.023438 13.421875 -6.9375 14.515625 -6.28125 C 15.609375 -5.625 16.785156 -5.296875 18.046875 -5.296875 C 19.628906 -5.296875 20.9375 -5.691406 21.96875 -6.484375 C 23 -7.273438 23.796875 -8.523438 24.359375 -10.234375 L 18.359375 -10.234375 Z M 18.359375 -16.515625 "/></g></g></g><g fill="#ffffff" fill-opacity="1"><g transform="translate(186.30876, 109.582772)"><g><path d="M 11.671875 0 L 3.59375 0 L 3.59375 -30.96875 L 11.671875 -30.96875 Z M 11.671875 0 "/></g></g></g><g fill="#ffffff" fill-opacity="1"><g transform="translate(200.397513, 109.582772)"><g><path d="M 14.453125 -31.59375 C 17.171875 -31.59375 19.390625 -31.144531 21.109375 -30.25 C 22.828125 -29.351562 24.132812 -28.132812 25.03125 -26.59375 C 25.9375 -25.050781 26.492188 -23.320312 26.703125 -21.40625 L 18.625 -21.40625 C 18.445312 -22.6875 18.003906 -23.71875 17.296875 -24.5 C 16.597656 -25.28125 15.585938 -25.671875 14.265625 -25.671875 C 13.335938 -25.671875 12.585938 -25.445312 12.015625 -25 C 11.453125 -24.550781 11.171875 -23.847656 11.171875 -22.890625 C 11.171875 -21.898438 11.625 -21.066406 12.53125 -20.390625 C 13.445312 -19.722656 15.175781 -19.085938 17.71875 -18.484375 C 21.132812 -17.679688 23.585938 -16.445312 25.078125 -14.78125 C 26.578125 -13.125 27.328125 -11.097656 27.328125 -8.703125 C 27.328125 -6.640625 26.742188 -4.921875 25.578125 -3.546875 C 24.410156 -2.171875 22.90625 -1.128906 21.0625 -0.421875 C 19.226562 0.273438 17.265625 0.625 15.171875 0.625 C 11.253906 0.625 8.0625 -0.1875 5.59375 -1.8125 C 3.125 -3.445312 1.769531 -6 1.53125 -9.46875 L 9.609375 -9.46875 C 9.867188 -8 10.519531 -6.9375 11.5625 -6.28125 C 12.613281 -5.625 13.738281 -5.296875 14.9375 -5.296875 C 16.082031 -5.296875 17.023438 -5.5625 17.765625 -6.09375 C 18.515625 -6.632812 18.890625 -7.328125 18.890625 -8.171875 C 18.890625 -8.972656 18.535156 -9.707031 17.828125 -10.375 C 17.128906 -11.050781 15.820312 -11.628906 13.90625 -12.109375 C 11.570312 -12.710938 9.566406 -13.398438 7.890625 -14.171875 C 6.222656 -14.953125 4.945312 -15.976562 4.0625 -17.25 C 3.175781 -18.519531 2.734375 -20.191406 2.734375 -22.265625 C 2.734375 -24.265625 3.28125 -25.953125 4.375 -27.328125 C 5.46875 -28.703125 6.90625 -29.753906 8.6875 -30.484375 C 10.46875 -31.222656 12.390625 -31.59375 14.453125 -31.59375 Z M 14.453125 -31.59375 "/></g></g></g><g fill="#ffffff" fill-opacity="1"><g transform="translate(228.485307, 109.582772)"><g><path d="M 28.8125 -24.6875 L 18.75 -24.6875 L 18.75 0 L 10.6875 0 L 10.6875 -24.6875 L 0.625 -24.6875 L 0.625 -30.96875 L 28.8125 -30.96875 Z M 28.8125 -24.6875 "/></g></g></g><g fill="#ffffff" fill-opacity="1"><g transform="translate(256.842326, 109.582772)"><g><path d="M 11.671875 0 L 3.59375 0 L 3.59375 -30.96875 L 11.671875 -30.96875 Z M 11.671875 0 "/></g></g></g><g fill="#ffffff" fill-opacity="1"><g transform="translate(270.931091, 109.582772)"><g><path d="M 30.15625 -5.703125 C 31.738281 -5.222656 33.335938 -4.3125 34.953125 -2.96875 L 31.09375 2.15625 C 29.65625 1.289062 28.492188 0.695312 27.609375 0.375 C 26.734375 0.0625 25.769531 -0.09375 24.71875 -0.09375 C 24.09375 -0.09375 23.546875 -0.0625 23.078125 0 C 22.617188 0.0625 22.078125 0.164062 21.453125 0.3125 C 20.523438 0.519531 19.460938 0.625 18.265625 0.625 C 15.066406 0.625 12.273438 -0.0234375 9.890625 -1.328125 C 7.515625 -2.628906 5.675781 -4.484375 4.375 -6.890625 C 3.070312 -9.296875 2.421875 -12.160156 2.421875 -15.484375 C 2.421875 -18.804688 3.070312 -21.675781 4.375 -24.09375 C 5.675781 -26.519531 7.515625 -28.382812 9.890625 -29.6875 C 12.273438 -30.988281 15.066406 -31.640625 18.265625 -31.640625 C 21.492188 -31.640625 24.289062 -30.988281 26.65625 -29.6875 C 29.019531 -28.382812 30.851562 -26.519531 32.15625 -24.09375 C 33.457031 -21.675781 34.109375 -18.804688 34.109375 -15.484375 C 34.109375 -13.597656 33.773438 -11.800781 33.109375 -10.09375 C 32.453125 -8.382812 31.46875 -6.921875 30.15625 -5.703125 Z M 10.6875 -15.484375 C 10.6875 -12.222656 11.363281 -9.707031 12.71875 -7.9375 C 14.082031 -6.175781 15.929688 -5.296875 18.265625 -5.296875 C 20.597656 -5.296875 22.441406 -6.175781 23.796875 -7.9375 C 25.160156 -9.707031 25.84375 -12.222656 25.84375 -15.484375 C 25.84375 -18.773438 25.160156 -21.300781 23.796875 -23.0625 C 22.441406 -24.832031 20.597656 -25.71875 18.265625 -25.71875 C 15.929688 -25.71875 14.082031 -24.832031 12.71875 -23.0625 C 11.363281 -21.300781 10.6875 -18.773438 10.6875 -15.484375 Z M 10.6875 -15.484375 "/></g></g></g><g fill="#ffffff" fill-opacity="1"><g transform="translate(306.422215, 109.582772)"><g><path d="M 30.515625 -30.96875 L 30.515625 -13.59375 C 30.515625 -12.820312 30.503906 -12.132812 30.484375 -11.53125 C 30.472656 -10.9375 30.4375 -10.175781 30.375 -9.25 C 30.257812 -7.507812 29.738281 -5.890625 28.8125 -4.390625 C 27.882812 -2.898438 26.445312 -1.691406 24.5 -0.765625 C 22.550781 0.160156 19.976562 0.625 16.78125 0.625 C 13.613281 0.625 11.046875 0.160156 9.078125 -0.765625 C 7.117188 -1.691406 5.675781 -2.898438 4.75 -4.390625 C 3.820312 -5.890625 3.300781 -7.507812 3.1875 -9.25 C 3.125 -10.175781 3.082031 -10.9375 3.0625 -11.53125 C 3.050781 -12.132812 3.046875 -12.820312 3.046875 -13.59375 L 3.046875 -30.96875 L 11.125 -30.96875 L 11.125 -12.109375 C 11.125 -11.691406 11.125 -11.347656 11.125 -11.078125 C 11.125 -10.816406 11.140625 -10.550781 11.171875 -10.28125 C 11.410156 -6.957031 13.28125 -5.296875 16.78125 -5.296875 C 20.28125 -5.296875 22.148438 -6.957031 22.390625 -10.28125 C 22.421875 -10.550781 22.4375 -10.816406 22.4375 -11.078125 C 22.4375 -11.347656 22.4375 -11.691406 22.4375 -12.109375 L 22.4375 -30.96875 Z M 30.515625 -30.96875 "/></g></g></g><g fill="#ffffff" fill-opacity="1"><g transform="translate(338.637917, 109.582772)"><g><path d="M 27.328125 -6.28125 L 27.328125 0 L 3.59375 0 L 3.59375 -30.96875 L 26.875 -30.96875 L 26.875 -24.6875 L 11.671875 -24.6875 L 11.671875 -18.671875 L 25.984375 -18.671875 L 25.984375 -12.390625 L 11.671875 -12.390625 L 11.671875 -6.28125 Z M 27.328125 -6.28125 "/></g></g></g></svg>