<svg xmlns="http://www.w3.org/2000/svg" xmlns:xlink="http://www.w3.org/1999/xlink" width="500" zoomAndPan="magnify" viewBox="0 0 375 374.999991" height="500" preserveAspectRatio="xMidYMid meet" version="1.0"><defs><g/><clipPath id="3aca58ee49"><path d="M 89.136719 117.921875 L 210 117.921875 L 210 227.421875 L 89.136719 227.421875 Z M 89.136719 117.921875 " clip-rule="nonzero"/></clipPath><clipPath id="3490410401"><path d="M 122 118 L 285.636719 118 L 285.636719 227.421875 L 122 227.421875 Z M 122 118 " clip-rule="nonzero"/></clipPath></defs><g clip-path="url(#3aca58ee49)"><path fill="#ffffff" d="M 89.265625 227.585938 L 113.730469 227.585938 L 123.65625 203.175781 L 127.429688 203.175781 C 131.917969 195.757812 136.875 188.703125 142.324219 182.058594 L 132.214844 182.058594 L 146.6875 146.695312 L 155.246094 167.699219 C 160.75 162.25 166.550781 157.113281 172.660156 152.328125 L 158.0625 117.921875 L 135.933594 117.921875 Z M 209.515625 129.703125 L 202.703125 118.695312 L 176.855469 118.695312 L 176.855469 149.144531 C 187.074219 141.613281 198.027344 135.097656 209.515625 129.703125 Z M 209.515625 129.703125 " fill-opacity="1" fill-rule="evenodd"/></g><g clip-path="url(#3490410401)"><path fill="#ffffff" d="M 176.855469 227.585938 L 200.363281 227.585938 L 200.363281 157.410156 L 200.546875 157.226562 L 230.703125 203.046875 L 231.292969 203.046875 L 261.980469 156.507812 L 261.980469 227.585938 L 285.730469 227.585938 L 285.730469 118.695312 L 259.941406 118.695312 L 231.277344 164.757812 L 217.765625 143.050781 C 228.714844 135.335938 241.035156 128.578125 254.621094 122.46875 C 195.15625 134.066406 145.617188 175.046875 122.882812 227.585938 L 166.492188 227.585938 L 167.269531 227.527344 C 168.410156 213.703125 171.6875 201.332031 176.839844 190.140625 L 176.839844 227.585938 Z M 176.855469 227.585938 " fill-opacity="1" fill-rule="evenodd"/></g><g fill="#ffffff" fill-opacity="1"><g transform="translate(90.659822, 250.587713)"><g><path d="M 12.515625 -3.109375 L 5.953125 -3.109375 L 4.890625 0 L 0.40625 0 L 6.78125 -17.609375 L 11.75 -17.609375 L 18.125 0 L 13.578125 0 Z M 11.421875 -6.421875 L 9.234375 -12.875 L 7.078125 -6.421875 Z M 11.421875 -6.421875 "/></g></g></g><g fill="#ffffff" fill-opacity="1"><g transform="translate(109.142396, 250.587713)"><g><path d="M 21.5 -17.609375 L 21.5 0 L 17.21875 0 L 17.21875 -10.5625 L 13.28125 0 L 9.8125 0 L 5.84375 -10.59375 L 5.84375 0 L 1.5625 0 L 1.5625 -17.609375 L 6.625 -17.609375 L 11.5625 -5.421875 L 16.46875 -17.609375 Z M 21.5 -17.609375 "/></g></g></g><g fill="#ffffff" fill-opacity="1"><g transform="translate(132.164108, 250.587713)"><g/></g></g><g fill="#ffffff" fill-opacity="1"><g transform="translate(137.480666, 250.587713)"><g><path d="M 5.84375 -3.3125 L 11.46875 -3.3125 L 11.46875 0 L 1.5625 0 L 1.5625 -17.609375 L 5.84375 -17.609375 Z M 5.84375 -3.3125 "/></g></g></g><g fill="#ffffff" fill-opacity="1"><g transform="translate(149.442923, 250.587713)"><g><path d="M 9.890625 0.171875 C 8.234375 0.171875 6.710938 -0.210938 5.328125 -0.984375 C 3.953125 -1.753906 2.859375 -2.828125 2.046875 -4.203125 C 1.234375 -5.585938 0.828125 -7.140625 0.828125 -8.859375 C 0.828125 -10.578125 1.234375 -12.125 2.046875 -13.5 C 2.859375 -14.875 3.953125 -15.941406 5.328125 -16.703125 C 6.710938 -17.472656 8.234375 -17.859375 9.890625 -17.859375 C 11.546875 -17.859375 13.0625 -17.472656 14.4375 -16.703125 C 15.820312 -15.941406 16.910156 -14.875 17.703125 -13.5 C 18.492188 -12.125 18.890625 -10.578125 18.890625 -8.859375 C 18.890625 -7.140625 18.488281 -5.585938 17.6875 -4.203125 C 16.882812 -2.828125 15.796875 -1.753906 14.421875 -0.984375 C 13.054688 -0.210938 11.546875 0.171875 9.890625 0.171875 Z M 9.890625 -3.734375 C 11.296875 -3.734375 12.421875 -4.203125 13.265625 -5.140625 C 14.109375 -6.078125 14.53125 -7.316406 14.53125 -8.859375 C 14.53125 -10.410156 14.109375 -11.648438 13.265625 -12.578125 C 12.421875 -13.515625 11.296875 -13.984375 9.890625 -13.984375 C 8.460938 -13.984375 7.328125 -13.519531 6.484375 -12.59375 C 5.640625 -11.675781 5.21875 -10.429688 5.21875 -8.859375 C 5.21875 -7.304688 5.640625 -6.0625 6.484375 -5.125 C 7.328125 -4.195312 8.460938 -3.734375 9.890625 -3.734375 Z M 9.890625 -3.734375 "/></g></g></g><g fill="#ffffff" fill-opacity="1"><g transform="translate(169.154317, 250.587713)"><g><path d="M 13.25 -12.046875 C 12.925781 -12.628906 12.46875 -13.078125 11.875 -13.390625 C 11.28125 -13.703125 10.582031 -13.859375 9.78125 -13.859375 C 8.394531 -13.859375 7.28125 -13.398438 6.4375 -12.484375 C 5.601562 -11.566406 5.1875 -10.347656 5.1875 -8.828125 C 5.1875 -7.210938 5.625 -5.945312 6.5 -5.03125 C 7.382812 -4.113281 8.597656 -3.65625 10.140625 -3.65625 C 11.191406 -3.65625 12.082031 -3.921875 12.8125 -4.453125 C 13.539062 -4.992188 14.070312 -5.769531 14.40625 -6.78125 L 8.953125 -6.78125 L 8.953125 -9.9375 L 18.296875 -9.9375 L 18.296875 -5.953125 C 17.972656 -4.878906 17.429688 -3.878906 16.671875 -2.953125 C 15.910156 -2.035156 14.941406 -1.289062 13.765625 -0.71875 C 12.597656 -0.15625 11.28125 0.125 9.8125 0.125 C 8.070312 0.125 6.519531 -0.253906 5.15625 -1.015625 C 3.789062 -1.773438 2.726562 -2.832031 1.96875 -4.1875 C 1.207031 -5.539062 0.828125 -7.085938 0.828125 -8.828125 C 0.828125 -10.566406 1.207031 -12.117188 1.96875 -13.484375 C 2.726562 -14.847656 3.785156 -15.910156 5.140625 -16.671875 C 6.492188 -17.429688 8.039062 -17.8125 9.78125 -17.8125 C 11.894531 -17.8125 13.675781 -17.300781 15.125 -16.28125 C 16.570312 -15.257812 17.53125 -13.847656 18 -12.046875 Z M 13.25 -12.046875 "/></g></g></g><g fill="#ffffff" fill-opacity="1"><g transform="translate(188.263843, 250.587713)"><g><path d="M 5.84375 -17.609375 L 5.84375 0 L 1.5625 0 L 1.5625 -17.609375 Z M 5.84375 -17.609375 "/></g></g></g><g fill="#ffffff" fill-opacity="1"><g transform="translate(195.661887, 250.587713)"><g><path d="M 7.921875 0.171875 C 6.640625 0.171875 5.488281 -0.0351562 4.46875 -0.453125 C 3.445312 -0.867188 2.628906 -1.484375 2.015625 -2.296875 C 1.410156 -3.117188 1.085938 -4.109375 1.046875 -5.265625 L 5.625 -5.265625 C 5.6875 -4.617188 5.910156 -4.125 6.296875 -3.78125 C 6.679688 -3.4375 7.179688 -3.265625 7.796875 -3.265625 C 8.429688 -3.265625 8.929688 -3.410156 9.296875 -3.703125 C 9.671875 -3.992188 9.859375 -4.398438 9.859375 -4.921875 C 9.859375 -5.359375 9.710938 -5.71875 9.421875 -6 C 9.128906 -6.28125 8.769531 -6.507812 8.34375 -6.6875 C 7.914062 -6.875 7.3125 -7.085938 6.53125 -7.328125 C 5.382812 -7.679688 4.453125 -8.03125 3.734375 -8.375 C 3.015625 -8.726562 2.394531 -9.25 1.875 -9.9375 C 1.363281 -10.625 1.109375 -11.519531 1.109375 -12.625 C 1.109375 -14.257812 1.703125 -15.539062 2.890625 -16.46875 C 4.078125 -17.394531 5.625 -17.859375 7.53125 -17.859375 C 9.46875 -17.859375 11.03125 -17.394531 12.21875 -16.46875 C 13.40625 -15.539062 14.039062 -14.25 14.125 -12.59375 L 9.484375 -12.59375 C 9.453125 -13.164062 9.242188 -13.613281 8.859375 -13.9375 C 8.472656 -14.257812 7.976562 -14.421875 7.375 -14.421875 C 6.851562 -14.421875 6.429688 -14.28125 6.109375 -14 C 5.796875 -13.726562 5.640625 -13.335938 5.640625 -12.828125 C 5.640625 -12.253906 5.90625 -11.804688 6.4375 -11.484375 C 6.976562 -11.171875 7.816406 -10.832031 8.953125 -10.46875 C 10.097656 -10.082031 11.023438 -9.710938 11.734375 -9.359375 C 12.441406 -9.003906 13.054688 -8.492188 13.578125 -7.828125 C 14.097656 -7.160156 14.359375 -6.300781 14.359375 -5.25 C 14.359375 -4.238281 14.101562 -3.320312 13.59375 -2.5 C 13.082031 -1.6875 12.335938 -1.035156 11.359375 -0.546875 C 10.390625 -0.0664062 9.242188 0.171875 7.921875 0.171875 Z M 7.921875 0.171875 "/></g></g></g><g fill="#ffffff" fill-opacity="1"><g transform="translate(211.084928, 250.587713)"><g><path d="M 14.234375 -17.609375 L 14.234375 -14.171875 L 9.5625 -14.171875 L 9.5625 0 L 5.265625 0 L 5.265625 -14.171875 L 0.609375 -14.171875 L 0.609375 -17.609375 Z M 14.234375 -17.609375 "/></g></g></g><g fill="#ffffff" fill-opacity="1"><g transform="translate(225.90609, 250.587713)"><g><path d="M 5.84375 -17.609375 L 5.84375 0 L 1.5625 0 L 1.5625 -17.609375 Z M 5.84375 -17.609375 "/></g></g></g><g fill="#ffffff" fill-opacity="1"><g transform="translate(233.304134, 250.587713)"><g><path d="M 14.109375 3.015625 L 11.84375 -0.03125 C 11.175781 0.101562 10.523438 0.171875 9.890625 0.171875 C 8.234375 0.171875 6.710938 -0.210938 5.328125 -0.984375 C 3.953125 -1.753906 2.859375 -2.828125 2.046875 -4.203125 C 1.234375 -5.585938 0.828125 -7.140625 0.828125 -8.859375 C 0.828125 -10.578125 1.234375 -12.125 2.046875 -13.5 C 2.859375 -14.875 3.953125 -15.941406 5.328125 -16.703125 C 6.710938 -17.472656 8.234375 -17.859375 9.890625 -17.859375 C 11.546875 -17.859375 13.0625 -17.472656 14.4375 -16.703125 C 15.820312 -15.941406 16.910156 -14.875 17.703125 -13.5 C 18.492188 -12.125 18.890625 -10.578125 18.890625 -8.859375 C 18.890625 -7.347656 18.582031 -5.96875 17.96875 -4.71875 C 17.363281 -3.476562 16.519531 -2.445312 15.4375 -1.625 L 19.296875 3.015625 Z M 5.21875 -8.859375 C 5.21875 -7.304688 5.640625 -6.0625 6.484375 -5.125 C 7.328125 -4.195312 8.460938 -3.734375 9.890625 -3.734375 C 11.296875 -3.734375 12.421875 -4.203125 13.265625 -5.140625 C 14.109375 -6.078125 14.53125 -7.316406 14.53125 -8.859375 C 14.53125 -10.410156 14.109375 -11.648438 13.265625 -12.578125 C 12.421875 -13.515625 11.296875 -13.984375 9.890625 -13.984375 C 8.460938 -13.984375 7.328125 -13.519531 6.484375 -12.59375 C 5.640625 -11.675781 5.21875 -10.429688 5.21875 -8.859375 Z M 5.21875 -8.859375 "/></g></g></g><g fill="#ffffff" fill-opacity="1"><g transform="translate(253.065688, 250.587713)"><g><path d="M 5.765625 -17.609375 L 5.765625 -7.078125 C 5.765625 -6.023438 6.023438 -5.210938 6.546875 -4.640625 C 7.066406 -4.078125 7.828125 -3.796875 8.828125 -3.796875 C 9.835938 -3.796875 10.609375 -4.078125 11.140625 -4.640625 C 11.671875 -5.210938 11.9375 -6.023438 11.9375 -7.078125 L 11.9375 -17.609375 L 16.234375 -17.609375 L 16.234375 -7.09375 C 16.234375 -5.53125 15.898438 -4.203125 15.234375 -3.109375 C 14.566406 -2.023438 13.664062 -1.207031 12.53125 -0.65625 C 11.40625 -0.101562 10.144531 0.171875 8.75 0.171875 C 7.363281 0.171875 6.125 -0.0976562 5.03125 -0.640625 C 3.9375 -1.179688 3.070312 -2 2.4375 -3.09375 C 1.800781 -4.195312 1.484375 -5.53125 1.484375 -7.09375 L 1.484375 -17.609375 Z M 5.765625 -17.609375 "/></g></g></g><g fill="#ffffff" fill-opacity="1"><g transform="translate(270.745756, 250.587713)"><g><path d="M 5.84375 -14.171875 L 5.84375 -10.609375 L 11.59375 -10.609375 L 11.59375 -7.296875 L 5.84375 -7.296875 L 5.84375 -3.4375 L 12.34375 -3.4375 L 12.34375 0 L 1.5625 0 L 1.5625 -17.609375 L 12.34375 -17.609375 L 12.34375 -14.171875 Z M 5.84375 -14.171875 "/></g></g></g></svg>