<?xml version="1.0" encoding="UTF-8"?>
<svg xmlns="http://www.w3.org/2000/svg" xmlns:xlink="http://www.w3.org/1999/xlink" width="391pt" height="162pt" viewBox="0 0 391 162" version="1.1">
<g id="surface1">
<path style=" stroke:none;fill-rule:nonzero;fill:rgb(0%,42.698669%,43.499756%);fill-opacity:1;" d="M 236.921875 122.519531 L 208.050781 93.320313 L 138.28125 161.207031 L 98.71875 120.339844 L 168.230469 53.039063 L 140.476563 24.96875 L 266.894531 0.441406 L 236.921875 122.519531 "/>
<path style=" stroke:none;fill-rule:nonzero;fill:rgb(15.699768%,15.299988%,50.59967%);fill-opacity:1;" d="M 0.078125 43.832031 L 390.277344 43.832031 L 390.277344 94.289063 L 0.078125 94.289063 L 0.078125 43.832031 "/>
<path style=" stroke:none;fill-rule:evenodd;fill:rgb(100%,100%,100%);fill-opacity:1;" d="M 73.195313 84.769531 L 82.941406 84.769531 C 90.0625 84.769531 92.683594 80.6875 92.683594 77.191406 C 92.683594 73.359375 90.101563 70.570313 85.855469 69.777344 L 85.855469 69.695313 C 88.8125 68.488281 90.1875 66.570313 90.1875 63.613281 C 90.1875 60.035156 87.5625 56.371094 81.441406 56.371094 L 73.195313 56.371094 Z M 77.277344 60.035156 L 81.023438 60.035156 C 84.773438 60.035156 85.980469 61.867188 85.980469 63.988281 C 85.980469 67.03125 84.023438 68.527344 79.984375 68.527344 L 77.277344 68.527344 Z M 77.277344 72.191406 L 82.191406 72.191406 C 86.480469 72.191406 88.480469 74.027344 88.480469 76.609375 C 88.480469 78.730469 87.1875 81.105469 82.398438 81.105469 L 77.277344 81.105469 L 77.277344 72.191406 "/>
<path style=" stroke:none;fill-rule:evenodd;fill:rgb(100%,100%,100%);fill-opacity:1;" d="M 118.734375 51.539063 C 117.652344 51.539063 116.777344 52.371094 116.777344 53.453125 C 116.777344 54.535156 117.652344 55.410156 118.734375 55.410156 C 119.820313 55.410156 120.652344 54.535156 120.652344 53.453125 C 120.652344 52.371094 119.820313 51.539063 118.734375 51.539063 Z M 120.777344 56.371094 L 116.695313 56.371094 L 116.695313 84.769531 L 120.777344 84.769531 L 120.777344 56.371094 "/>
<path style=" stroke:none;fill-rule:evenodd;fill:rgb(100%,100%,100%);fill-opacity:1;" d="M 145.824219 70.570313 C 145.824219 78.273438 151.695313 85.144531 160.980469 85.144531 C 170.601563 85.144531 176.347656 78.230469 176.347656 70.570313 C 176.347656 62.65625 170.433594 55.996094 161.0625 55.996094 C 151.859375 55.996094 145.824219 62.699219 145.824219 70.570313 Z M 150.027344 70.570313 C 150.027344 64.324219 154.734375 59.742188 161.0625 59.742188 C 167.433594 59.742188 172.140625 64.324219 172.140625 70.570313 C 172.140625 76.773438 167.433594 81.394531 161.0625 81.394531 C 154.734375 81.394531 150.027344 76.773438 150.027344 70.570313 "/>
<path style=" stroke:none;fill-rule:evenodd;fill:rgb(100%,100%,100%);fill-opacity:1;" d="M 201.152344 56.371094 L 201.152344 84.769531 L 205.230469 84.769531 L 205.230469 72.484375 L 209.480469 72.484375 C 216.058594 72.484375 219.054688 68.984375 219.054688 64.53125 C 219.054688 60.035156 216.226563 56.371094 210.019531 56.371094 Z M 205.230469 60.035156 L 210.019531 60.035156 C 213.726563 60.035156 214.851563 62.28125 214.851563 64.363281 C 214.851563 67.195313 212.894531 68.820313 209.855469 68.820313 L 205.230469 68.820313 L 205.230469 60.035156 "/>
<path style=" stroke:none;fill-rule:evenodd;fill:rgb(100%,100%,100%);fill-opacity:1;" d="M 241.347656 70.570313 C 241.347656 78.273438 247.222656 85.144531 256.507813 85.144531 C 266.125 85.144531 271.871094 78.230469 271.871094 70.570313 C 271.871094 62.65625 265.960938 55.996094 256.589844 55.996094 C 247.386719 55.996094 241.347656 62.699219 241.347656 70.570313 Z M 245.554688 70.570313 C 245.554688 64.324219 250.261719 59.742188 256.589844 59.742188 C 262.960938 59.742188 267.667969 64.324219 267.667969 70.570313 C 267.667969 76.773438 262.960938 81.394531 256.589844 81.394531 C 250.261719 81.394531 245.554688 76.773438 245.554688 70.570313 "/>
<path style=" stroke:none;fill-rule:evenodd;fill:rgb(100%,100%,100%);fill-opacity:1;" d="M 296.96875 56.371094 L 296.96875 84.769531 L 301.050781 84.769531 L 301.050781 72.441406 L 302.757813 72.441406 C 304.839844 72.441406 306.546875 73.109375 310.292969 78.9375 L 314.039063 84.769531 L 318.914063 84.769531 C 316.957031 82.0625 316.246094 81.105469 315.039063 79.148438 C 312.875 75.609375 311.292969 72.984375 308.710938 71.277344 C 311.75 70.070313 313.460938 67.613281 313.460938 64.324219 C 313.460938 59.410156 309.878906 56.371094 304.128906 56.371094 Z M 301.050781 59.867188 L 303.671875 59.867188 C 307.628906 59.867188 309.210938 61.492188 309.253906 64.15625 C 309.292969 66.53125 308.046875 68.777344 303.671875 68.777344 L 301.050781 68.777344 L 301.050781 59.867188 "/>
<path style=" stroke:none;fill-rule:nonzero;fill:rgb(100%,100%,100%);fill-opacity:1;" d="M 363.359375 56.367188 L 339.621094 56.367188 L 339.621094 60.035156 L 349.449219 60.035156 L 349.449219 84.769531 L 353.53125 84.769531 L 353.53125 60.035156 L 363.359375 60.035156 L 363.359375 56.367188 "/>
</g>
</svg>
