<?xml version="1.0" encoding="utf-8"?>
<!-- Generator: Adobe Illustrator 25.0.1, SVG Export Plug-In . SVG Version: 6.00 Build 0)  -->
<svg version="1.0" id="Calque_1" xmlns="http://www.w3.org/2000/svg" xmlns:xlink="http://www.w3.org/1999/xlink" x="0px" y="0px"
	 viewBox="0 0 350 246.5" style="enable-background:new 0 0 350 246.5;" xml:space="preserve">
<style type="text/css">
	.st0{fill:#E84424;}
</style>
<g>
	<path class="st0" d="M143.6,197c-6.5,0-11.8,5.3-11.8,11.8s5.3,11.8,11.8,11.8c6.5,0,11.8-5.3,11.8-11.8
		C155.4,202.3,150.1,197,143.6,197z M149.4,208.8c0,3.2-2.6,5.8-5.8,5.8c-3.2,0-5.8-2.6-5.8-5.8s2.6-5.8,5.8-5.8
		C146.8,203.1,149.4,205.6,149.4,208.8z"/>
	<path class="st0" d="M181.5,197c-6.5,0-11.8,5.3-11.8,11.8s5.3,11.8,11.8,11.8c6.5,0,11.8-5.3,11.8-11.8
		C193.3,202.3,188,197,181.5,197z M187.3,208.8c0,3.2-2.6,5.8-5.8,5.8c-3.2,0-5.8-2.6-5.8-5.8s2.6-5.8,5.8-5.8
		C184.7,203.1,187.3,205.6,187.3,208.8z"/>
	<rect x="124.3" y="197.5" class="st0" width="6" height="22.6"/>
	<path class="st0" d="M170.5,197.5h-5.9v-1.7c0-0.7,0.2-1.3,0.5-1.6c0.3-0.4,0.9-0.5,1.6-0.5h3.8v-5.1h-5.1c-2.3,0-4,0.5-5.2,1.6
		c-1.1,1.1-1.7,2.6-1.7,4.6v2.6h-3.9v5h3.9v17.6h6v-17.6h5.9V197.5z"/>
	<path class="st0" d="M224.1,212c-1.1,1.6-2.9,2.5-4.8,2.5c-3.2,0-5.8-2.6-5.8-5.8s2.6-5.8,5.8-5.8c1.9,0,3.7,0.9,4.8,2.5l0.2,0.3
		l4.2-4.5l-0.2-0.2c-2.2-2.7-5.5-4.2-9-4.2c-6.5,0-11.8,5.3-11.8,11.8s5.3,11.8,11.8,11.8c3.5,0,6.7-1.5,9-4.2l0.2-0.2l-4.2-4.5
		L224.1,212z"/>
	<path class="st0" d="M127.3,188.6c-1.9,0-3.5,1.6-3.5,3.5s1.6,3.5,3.5,3.5c1.9,0,3.5-1.6,3.5-3.5
		C130.8,190.2,129.2,188.6,127.3,188.6z"/>
	<path class="st0" d="M251.3,208.8c0-6.5-5.3-11.8-11.8-11.8s-11.8,5.3-11.8,11.8s5.3,11.8,11.8,11.8c3.7,0,7-1.7,9.2-4.4l-4.2-4.5
		c-1,1.7-2.9,2.9-5,2.9c-2.5,0-4.6-1.6-5.4-3.8h17.1C251.2,210.1,251.3,209.5,251.3,208.8z M234.1,206.9c0.8-2.2,2.9-3.8,5.4-3.8
		c2.5,0,4.6,1.6,5.4,3.8H234.1z"/>
	<path class="st0" d="M206.9,197c-1.7,0-3.1,0.3-4.1,0.9c-0.8,0.4-1.4,1-2,1.8v0l-0.5-2.2h-5.5v22.6h6v-11.4c0-1.7,0.4-3.1,1.1-4.1
		c0.8-1,1.9-1.4,3.6-1.4h2.8V197H206.9z"/>
	<path class="st0" d="M112.4,197c-2.5,0-4.8,1-6.6,2.7v-11.1h-6.1v31.5h5.3l0.7-2.2v0c1.8,1.7,4.1,2.7,6.6,2.7
		c5.8,0,10.4-5.3,10.4-11.8C122.8,202.3,118.1,197,112.4,197z M111.3,215.1c-3.1,0-5.6-2.8-5.6-6.3s2.5-6.3,5.6-6.3s5.6,2.8,5.6,6.3
		S114.4,215.1,111.3,215.1z"/>
</g>
<g>
	<path class="st0" d="M218.6,76.4V74c0-26.2-21.2-47.4-47.4-47.4h-62.2c-5.1,0-9.3,4.1-9.3,9.3v123.7c0,5.1,4.2,9.3,9.3,9.3h93.5
		c26.3,0,48.6-20.8,48.8-47C251.4,100.6,237.7,82.6,218.6,76.4z"/>
</g>
</svg>
