<svg xmlns="http://www.w3.org/2000/svg" height="800" width="1200" version="1.2" viewBox="-81.6567 -42.52175 707.6914 255.1305"><g fill="none" stroke-linecap="square" stroke-linejoin="bevel"><path d="M118.192 160.916c16.198-11.519 26.396-22.678 37.915-43.795 6.719-11.638 13.678-54.353 6.12-83.39 8.278 14.999 9.598 45.715 2.399 69.472-7.08 24.837-22.557 42.714-46.434 57.713m-18.238 2.64c-14.278-.96-24.477-6.96-35.635-14.399 30.116 10.079 55.432-3.36 71.63-47.994 6.96-9.359 9.12-16.198 11.159-24.357-3.24 27.117-18.478 76.91-47.154 86.75m-54.713-23.518c4.32 3.24 9.839 5.88 14.638 7.56 17.158 11.878 34.316 16.437 35.996 16.797-19.798 1.92-35.636-10.679-50.634-24.357m-20.637-80.27c-22.678 36.956 6.599 78.59 37.435 97.668-23.517-6.48-40.795-27.836-48.714-45.714-7.68-18.958-6.12-34.316 11.279-51.954m107.146 46.914c-12.478 30.597-30.836 44.155-50.754 42.115-24.117-1.8-34.675-8.759-47.394-28.316 0 0 0 .12.12.12-4.08-6.6-5.999-15.958-6.359-23.277 15.358 37.195 73.19 48.833 104.387 9.358M63.719 41.531c15.838-13.919 34.315-23.997 51.473-23.397 30.356 1.44 30.956 49.073 18.838 82.55-32.396 44.154-86.87 31.555-99.468-1.56-3.6-15.719 4.2-35.396 29.157-57.593m74.63 52.793c6-19.678 7.68-40.915 2.76-58.673 11.278 17.998 8.759 40.435-2.76 58.673m11.879-59.752c.72 4.799 1.08 11.038-.6 21.957-1.68-20.278-15.238-39.355-28.197-42.595 13.439.12 23.157 4.8 28.797 20.638m-1.56 47.993c1.44-10.078 1.44-19.677 1.44-19.677.72-4.2 2.16-11.999 2.16-20.038 12.238 35.996-1.2 84.11-29.637 108.947 7.92-11.159 21.357-38.035 26.037-69.232m-16.798 64.912c10.319-14.638 23.277-39.355 26.397-65.871.48-4.8 2.52-50.274-16.558-70.072 19.077 6.36 25.077 39.955 21.957 67.672-3.12 29.156-15.238 52.433-31.796 68.271m26.997-132.943c-3.96-6.6-18.718-16.918-43.915-14.038-31.556 0-61.912 17.038-82.55 33.236C11.526 50.53.128 66.368.008 75.366c-.24 11.279 5.999 34.916 18.357 53.394 12.119 17.517 22.917 23.637 39.355 32.036 16.198 8.638 37.556 13.558 53.754 4.319 20.397-4.32 38.995-27.716 50.633-52.193 11.279-23.037 14.758-70.551-3.24-98.388" fill="#ffe600"/><path d="M241.056 100.923c9.359 0 15.838-7.319 15.838-16.438s-6.36-16.558-15.838-16.558c-9.359 0-15.838 7.44-15.838 16.558.12 9.12 6.48 16.438 15.838 16.438m0-47.994c18.118 0 31.796 14.158 31.796 31.556 0 17.518-13.678 31.436-31.796 31.436s-31.796-13.918-31.796-31.436 13.678-31.556 31.796-31.556m80.75 0v15.598c-9.959 0-15.118 1.44-19.198 3.6v42.594H286.53V63.248c9.24-7.2 20.878-10.319 33.356-10.319h1.92m102.827 10.559c0-5.04 6.12-10.559 16.918-10.559 8.279 0 15.838 3.72 20.757 9.719 3.96 4.8 6.12 10.919 6.12 21.237v30.836h-16.079V82.565c0-5.999-1.32-9.118-3.6-11.398-2.039-2.16-5.279-3.36-8.998-3.36-6.84 0-12.359 4.32-14.518 7.44V114.6h-16.078V54.13h15.478v9.359m87.949 37.435c9.359 0 15.838-7.319 15.838-16.438s-6.36-16.558-15.838-16.558c-9.36 0-15.838 7.44-15.838 16.558 0 9.12 6.479 16.438 15.838 16.438m0-47.994c18.117 0 31.796 14.158 31.796 31.556 0 17.518-13.679 31.436-31.796 31.436-18.118 0-31.796-13.918-31.796-31.436s13.678-31.556 31.796-31.556M375.439 71.767c-3.6-2.88-7.319-4.32-13.438-4.32-10.799 0-16.798 8.28-16.798 16.918 0 9.36 6.839 16.798 15.838 16.798 6 0 11.398-3 14.398-7.439V71.767m16.078-6.84v49.794h-15.478v-9.238c0 4.559-9.479 10.438-17.998 10.438-17.398 0-28.916-12.958-28.916-31.556 0-17.638 13.318-31.676 31.676-31.676 12.238-.12 21.957 3.6 30.716 12.239" fill="#000"/></g></svg>